<?xml version="1.0" encoding="UTF-8" standalone="no"?>
<!-- Created with Inkscape (http://www.inkscape.org/) -->

<svg
   xmlns:dc="http://purl.org/dc/elements/1.1/"
   xmlns:cc="http://creativecommons.org/ns#"
   xmlns:rdf="http://www.w3.org/1999/02/22-rdf-syntax-ns#"
   xmlns:svg="http://www.w3.org/2000/svg"
   xmlns="http://www.w3.org/2000/svg"
   xmlns:sodipodi="http://sodipodi.sourceforge.net/DTD/sodipodi-0.dtd"
   xmlns:inkscape="http://www.inkscape.org/namespaces/inkscape"
   id="svg3355"
   version="1.1"
   inkscape:version="0.91 r13725"
   xml:space="preserve"
   width="276"
   height="170"
   viewBox="0 0 275.99999 170"
   sodipodi:docname="netresearch-logo_portrait_measures.svg"><metadata
     id="metadata3361"><rdf:RDF><cc:Work
         rdf:about=""><dc:format>image/svg+xml</dc:format><dc:type
           rdf:resource="http://purl.org/dc/dcmitype/StillImage" /><dc:title></dc:title></cc:Work></rdf:RDF></metadata><defs
     id="defs3359"><clipPath
       clipPathUnits="userSpaceOnUse"
       id="clipPath3371"><path
         d="m 798.578,305.559 1610.872,0 0,239.269 -1610.872,0 0,-239.269 z"
         id="path3373"
         inkscape:connector-curvature="0" /></clipPath><clipPath
       clipPathUnits="userSpaceOnUse"
       id="clipPath3381"><path
         d="m 291.508,263.742 268.504,0 0,322.918 -268.504,0 0,-322.918 z"
         id="path3383"
         inkscape:connector-curvature="0" /></clipPath><clipPath
       clipPathUnits="userSpaceOnUse"
       id="clipPath3371-9"><path
         d="m 798.578,305.559 1610.872,0 0,239.269 -1610.872,0 0,-239.269 z"
         id="path3373-3"
         inkscape:connector-curvature="0" /></clipPath><clipPath
       clipPathUnits="userSpaceOnUse"
       id="clipPath3371-6"><path
         d="m 798.578,305.559 1610.872,0 0,239.269 -1610.872,0 0,-239.269 z"
         id="path3373-1"
         inkscape:connector-curvature="0" /></clipPath></defs><sodipodi:namedview
     pagecolor="#ffffff"
     bordercolor="#666666"
     borderopacity="1"
     objecttolerance="10"
     gridtolerance="10"
     guidetolerance="10"
     inkscape:pageopacity="0"
     inkscape:pageshadow="2"
     inkscape:window-width="1920"
     inkscape:window-height="1021"
     id="namedview3357"
     showgrid="false"
     showguides="true"
     inkscape:guide-bbox="true"
     inkscape:zoom="2.7093133"
     inkscape:cx="206.93883"
     inkscape:cy="105.84304"
     inkscape:window-x="1920"
     inkscape:window-y="0"
     inkscape:window-maximized="1"
     inkscape:current-layer="g3363"
     fit-margin-top="24"
     fit-margin-left="24"
     fit-margin-right="24"
     fit-margin-bottom="24"><sodipodi:guide
       position="180.82361,136"
       orientation="0,1"
       id="guide4250"
       inkscape:label=""
       inkscape:color="rgb(0,0,255)" /><sodipodi:guide
       position="191.89652,68"
       orientation="0,1"
       id="guide4252"
       inkscape:label=""
       inkscape:color="rgb(0,0,255)" /><sodipodi:guide
       position="209.24409,127"
       orientation="0,1"
       id="guide4254"
       inkscape:label=""
       inkscape:color="rgb(0,0,255)" /><sodipodi:guide
       position="194.8493,76"
       orientation="0,1"
       id="guide4256"
       inkscape:label=""
       inkscape:color="rgb(0,0,255)" /><sodipodi:guide
       position="214.04236,85"
       orientation="0,1"
       id="guide4258"
       inkscape:label=""
       inkscape:color="rgb(0,0,255)" /><sodipodi:guide
       position="183.77639,24"
       orientation="0,1"
       id="guide4260"
       inkscape:label=""
       inkscape:color="rgb(0,0,255)" /><sodipodi:guide
       position="11.026876,48"
       orientation="0,1"
       id="guide3424"
       inkscape:label=""
       inkscape:color="rgb(0,0,255)" /></sodipodi:namedview><g
     id="g3363"
     inkscape:groupmode="layer"
     inkscape:label="ink_ext_XXXXXX"
     transform="matrix(1.25,0,0,-1.25,76,170)"><g
       id="g3365"
       transform="scale(0.1,0.1)"><path
         style="fill:#4b4e58;fill-opacity:1;fill-rule:nonzero;stroke:none"
         d="m 1242.8,448.13737 0,-256.25 32.07,0 0,115.98438 c 2.19,7.36123 5.42,14.11621 9.68,20.25 4.25,6.12924 9.1,11.42699 14.57,15.84375 5.48,4.41217 11.38,7.90228 17.69,10.46874 6.33,2.58014 12.63,3.875 18.97,3.875 13.13,0 23.11,-4.84377 29.91,-14.53125 6.81,-9.70568 10.22,-24.49339 10.22,-44.375 l 0,-107.51562 32.09,0 0,114.875 c 0,11.28836 -1.04,21.90808 -3.11,31.84375 -2.06,9.94592 -5.4,18.47732 -10.02,25.59375 -4.62,7.11642 -10.82,12.75449 -18.6,16.92188 -7.8,4.17193 -17.28,6.25 -28.46,6.25 -15.31,0 -29.4,-2.96957 -42.29,-8.93751 -12.89,-5.96882 -23.11,-14.28097 -30.65,-24.90625 l 0,94.60938 -32.07,0 z m -1258.35,-8 0,-56.0625 -25.9,0 0,-25.40625 25.9,0 0,-129.21875 c 0,-13.74325 4.24,-23.8814 12.77,-30.375 8.5,-6.50726 18.6,-9.75 30.26,-9.75 5.11,0 10.03,0.42273 14.77,1.28125 4.74,0.86764 9.11,1.96552 13.12,3.3125 3.82,1.28989 7.2,2.56242 10.24,3.84375 l 0,26.6875 c -2.02,-1.20767 -5.35,-2.74683 -10.24,-4.70312 -5.23,-2.08144 -10.99,-3.125 -17.31,-3.125 -5.6,0 -10.46,1.58935 -14.59,4.79687 -4.15,3.18816 -6.45,8.33669 -6.94,15.45313 l 0,121.79687 42.69,0 0,25.40625 -42.69,0 0,56.0625 -32.08,0 z m -292.12,-52.76562 c -16.77,0 -32.29,-3.05343 -46.52,-9.21876 -14.22,-6.15061 -25.09,-14.36852 -32.62,-24.625 l 0,30.54688 -29.19,0 0,-192.1875 32.09,0 0,115.98438 c 2.19,7.36123 5.47,14.11621 9.85,20.25 4.38,6.12924 9.48,11.42699 15.31,15.84375 5.84,4.41217 12.05,7.90228 18.61,10.46874 6.56,2.58014 13.12,3.875 19.69,3.875 12.63,0 22.07,-4.66584 28.26,-13.98437 6.2,-9.32651 9.3,-24.30585 9.3,-44.92188 l 0,-107.51562 32.09,0 0,114.875 c 0,11.53318 -0.92,22.21514 -2.73,32.03125 -1.83,9.82067 -4.92,18.35776 -9.3,25.59375 -4.38,7.24166 -10.2,12.87715 -17.5,16.9375 -7.29,4.03417 -16.4,6.04688 -27.34,6.04688 z m 172.48,0 c -14.34,0 -27.46,-2.61992 -39.37,-7.89063 -11.91,-5.27072 -22.18,-12.45038 -30.82,-21.54688 -8.62,-9.0726 -15.32,-19.63345 -20.07,-31.65625 -4.74,-12.0444 -7.1,-24.79842 -7.1,-38.29687 0,-13.49959 2.36,-26.32528 7.1,-38.46875 4.75,-12.15485 11.36,-22.76205 19.89,-31.84375 8.5,-9.08741 18.72,-16.27616 30.64,-21.54687 11.9,-5.27983 25.03,-7.90625 39.37,-7.90625 9.49,0 18.61,1.21698 27.36,3.67187 8.76,2.45487 16.72,5.85254 23.89,10.14062 7.18,4.29605 13.5,9.37323 18.97,15.26563 2.8,3.01311 5.29,6.19454 7.49,9.53125 l -21.97,17.625 -0.28,0.0781 c -1.96,-4.90064 -4.81,-9.31376 -8.58,-13.25 -3.78,-3.9146 -8.09,-7.2378 -12.96,-9.93749 -4.86,-2.69058 -10.08,-4.83463 -15.67,-6.42188 -5.59,-1.6009 -11.32,-2.40625 -17.15,-2.40625 -8.27,0 -16.1,1.58397 -23.52,4.78125 -7.41,3.19384 -14.04,7.61233 -19.87,13.26562 -5.84,5.64875 -10.59,12.39118 -14.24,20.25 -3.64,7.85084 -5.83,16.5537 -6.56,26.125 l 157.92,0 c 0.24,1.22403 0.42,2.96066 0.55,5.17188 0.12,2.20098 0.17,4.6395 0.17,7.34375 0,12.76517 -2.23,25.10444 -6.73,37.01563 -4.5,11.89753 -10.9,22.31909 -19.16,31.28125 -8.27,8.96215 -18.28,16.15206 -30.08,21.54687 -11.79,5.39941 -24.87,8.07812 -39.22,8.07813 z m 417.6,0 c -14.35,0 -27.48,-2.61992 -39.39,-7.89063 -11.92,-5.27072 -22.19,-12.45038 -30.82,-21.54688 -8.63,-9.0726 -15.32,-19.63345 -20.06,-31.65625 -4.75,-12.0444 -7.11,-24.79842 -7.11,-38.29687 0,-13.49959 2.36,-26.32528 7.11,-38.46875 4.74,-12.15485 11.38,-22.76205 19.89,-31.84375 8.51,-9.08741 18.72,-16.27616 30.63,-21.54687 11.91,-5.27983 25.04,-7.90625 39.39,-7.90625 9.48,0 18.59,1.21698 27.34,3.67187 8.75,2.45487 16.72,5.85254 23.89,10.14062 7.18,4.29605 13.48,9.37323 18.95,15.26563 2.8,3.00877 5.29,6.18326 7.49,9.51562 l -21.99,17.64063 -0.25,0.0781 c -1.95,-4.90064 -4.81,-9.31376 -8.57,-13.25 -3.78,-3.9146 -8.1,-7.2378 -12.96,-9.93749 -4.86,-2.69058 -10.1,-4.83463 -15.67,-6.42188 -5.59,-1.6009 -11.31,-2.40625 -17.14,-2.40625 -8.27,0 -16.11,1.58397 -23.53,4.78125 -7.41,3.19384 -14.04,7.61233 -19.88,13.26562 -5.83,5.64875 -10.59,12.39118 -14.23,20.25 -3.64,7.85084 -5.81,16.5537 -6.55,26.125 l 157.91,0 c 0.24,1.22403 0.42,2.96066 0.55,5.17188 0.12,2.20098 0.17,4.6395 0.17,7.34375 0,12.76517 -2.24,25.10444 -6.74,37.01563 -4.5,11.89753 -10.87,22.31909 -19.14,31.28125 -8.26,8.96215 -18.29,16.15206 -30.09,21.54687 -11.79,5.39941 -24.86,8.07812 -39.2,8.07813 z m 180.31,0 c -10.21,0 -19.75,-1.26476 -28.63,-3.84376 -8.88,-2.58012 -16.57,-6.38344 -23.14,-11.42187 -6.56,-5.02705 -11.73,-11.28029 -15.5,-18.76562 -3.78,-7.4808 -5.65,-16.0213 -5.65,-25.59375 0,-7.60492 1.2,-13.99403 3.64,-19.14063 2.42,-5.15002 6.31,-9.56653 11.67,-13.25 5.33,-3.67776 12.15,-6.87389 20.42,-9.57813 8.26,-2.68604 18.1,-5.51628 29.53,-8.46875 8.99,-2.20665 16.92,-4.29382 23.72,-6.25 6.8,-1.96641 12.39,-4.19371 16.77,-6.64062 4.37,-2.45489 7.67,-5.3272 9.86,-8.64063 2.2,-3.31453 3.28,-7.30835 3.28,-11.96875 0,-10.06092 -4.09,-17.85948 -12.24,-23.375 -8.15,-5.52349 -19.13,-8.29687 -33,-8.29687 -12.4,0 -24.19,2.16162 -35.36,6.45313 -11.2,4.29717 -22.38,10.744 -33.56,19.32812 L 380.67,216.2155 c 10.69,-9.09651 23.47,-16.03139 38.3,-20.81251 14.82,-4.7902 29.9,-7.18749 45.22,-7.18749 23.1,0 41.43,5.27304 55.06,15.82812 13.61,10.54941 20.44,24.78678 20.44,42.70313 0,8.10361 -1.53,14.97624 -4.57,20.625 -3.04,5.63507 -7.65,10.55333 -13.85,14.73437 -6.21,4.16284 -14,7.78312 -23.35,10.84375 -9.36,3.08227 -20.37,6.08676 -33.01,9.03125 -8.02,1.96528 -14.89,3.81078 -20.6,5.53125 -5.7,1.72616 -10.39,3.66036 -14.03,5.875 -3.66,2.19754 -6.28,4.78533 -7.87,7.73438 -1.57,2.94904 -2.36,6.61907 -2.36,11.03124 0,11.04469 4.08,19.08544 12.22,24.125 8.15,5.03957 18.06,7.56251 29.73,7.56251 10.44,0 20.66,-1.7935 30.64,-5.34375 9.97,-3.56619 18.97,-8.88554 26.98,-16.01563 l 14.6,19.5 c -8.52,7.60036 -18.96,13.75578 -31.36,18.42187 -12.4,4.66041 -25.79,6.96876 -40.14,6.96876 z m 183.26,0 c -14.34,0 -27.49,-2.61992 -39.4,-7.89063 -11.92,-5.27072 -22.2,-12.45038 -30.81,-21.54688 -8.64,-9.0726 -15.3,-19.63345 -20.05,-31.65625 -4.74,-12.0444 -7.13,-24.79842 -7.13,-38.29687 0,-13.49959 2.39,-26.32528 7.13,-38.46875 4.75,-12.15485 11.35,-22.76205 19.87,-31.84375 8.49,-9.08741 18.71,-16.27616 30.63,-21.54687 11.9,-5.27983 25.03,-7.90625 39.39,-7.90625 9.47,0 18.59,1.21698 27.34,3.67187 8.76,2.45487 16.72,5.85254 23.89,10.14062 7.18,4.29605 13.5,9.37323 18.97,15.26563 2.8,3.01138 5.27,6.19571 7.47,9.53125 l -21.95,17.625 -0.28,0.0781 c -1.97,-4.90064 -4.81,-9.31376 -8.57,-13.25 -3.77,-3.9146 -8.1,-7.2378 -12.95,-9.93749 -4.87,-2.69058 -10.1,-4.83463 -15.69,-6.42188 -5.6,-1.6009 -11.31,-2.40625 -17.14,-2.40625 -8.28,0 -16.11,1.58397 -23.51,4.78125 -7.42,3.19384 -14.06,7.61233 -19.89,13.26562 -5.83,5.64875 -10.56,12.39118 -14.21,20.25 -3.64,7.85084 -5.84,16.5537 -6.57,26.125 l 157.92,0 c 0.23,1.22403 0.42,2.96066 0.54,5.17188 0.12,2.20098 0.19,4.6395 0.19,7.34375 0,12.76517 -2.26,25.10444 -6.75,37.01563 -4.5,11.89753 -10.88,22.31909 -19.14,31.28125 -8.28,8.96215 -18.31,16.15206 -30.09,21.54687 -11.81,5.39941 -24.87,8.07812 -39.21,8.07813 z m 186.88,0 c -13.13,0 -25.76,-2.07807 -37.92,-6.25 -12.16,-4.16739 -24.45,-10.4263 -36.85,-18.76563 l 10.58,-21.57813 c 21.15,15.37509 41.32,23.06251 60.53,23.06251 16.05,0 28.45,-4.62514 37.21,-13.79688 8.75,-9.19864 13.14,-20.9466 13.14,-36.65625 l 0,-11.0625 c -7.29,2.40088 -15.69,4.50865 -25.18,6.0625 -9.48,1.54562 -19.18,1.73438 -28.07,1.73438 -11.25,0 -21.61,-1.5713 -31.1,-4.70313 -9.48,-3.13058 -17.69,-7.60982 -24.59,-13.45312 -6.91,-5.86731 -12.24,-12.50555 -15.99,-20 -3.74,-7.48079 -5.62,-15.77458 -5.62,-24.84375 0,-8.10817 1.57,-15.77053 4.73,-23.01563 3.18,-7.24055 7.57,-13.4949 13.19,-18.76562 5.62,-5.27983 12.29,-9.45808 20.02,-12.53126 7.72,-3.06973 16.17,-4.59374 25.31,-4.59374 6.32,0 12.65,0.73542 19.33,2.20312 6.69,1.48136 12.35,2.25098 18.67,5.1875 6.33,2.9479 13.12,6.03186 18.72,10.45312 5.58,4.41562 10.57,7.55762 14.94,13.43751 l 0.75,-9.56251 c 0.48,-7.11642 3.26,-12.14925 8.37,-15.09374 5.1,-2.94906 10.34,-4.42188 15.69,-4.42188 1.95,0 4.01,0.13019 6.19,0.375 2.2,0.24936 4.51,0.60413 6.93,1.09375 l 0,27.98438 c -6.8,0.25845 -10.22,4.16153 -10.22,11.78124 l 0,78.43751 c 0,24.5386 -7.04,43.53477 -21.14,57.04687 -14.09,13.48593 -33.31,20.23438 -57.62,20.23438 z m 310.72,0 c -14.59,0 -27.78,-2.61992 -39.56,-7.89063 -11.8,-5.27072 -21.95,-12.39527 -30.46,-21.34375 -8.51,-8.96215 -15.09,-19.46926 -19.7,-31.5 -4.63,-12.02278 -6.92,-24.78735 -6.92,-38.28125 0,-13.50413 2.38,-26.33746 7.11,-38.48437 4.76,-12.15144 11.36,-22.74641 19.89,-31.82813 8.49,-9.08738 18.72,-16.32393 30.64,-21.71875 11.9,-5.41305 25.01,-8.10937 39.37,-8.10937 9.48,0 18.53,1.21698 27.17,3.67187 8.62,2.45487 16.46,5.78118 23.52,9.95313 7.05,4.16853 13.2,9.19824 18.44,15.07812 5.22,5.9072 9.29,12.41481 12.2,19.53125 l -31.36,9.57812 c -1.46,-4.18105 -3.9,-8.05767 -7.3,-11.625 -3.41,-3.54911 -7.37,-6.67531 -11.85,-9.375 -4.52,-2.69171 -9.49,-4.84457 -14.97,-6.43749 -5.46,-1.59636 -11,-2.375 -16.58,-2.375 -8.75,0 -16.96,1.82222 -24.61,5.5 -7.67,3.68345 -14.36,8.77512 -20.06,15.28125 -5.72,6.50271 -10.28,14.16309 -13.68,23 -3.41,8.85625 -5.1,18.29389 -5.1,28.35937 0,10.30574 1.64,19.75964 4.92,28.34375 3.28,8.59324 7.72,16.0856 13.33,22.46875 5.58,6.38203 12.25,11.3324 20.04,14.89062 7.77,3.57075 16.04,5.35938 24.78,5.35938 10.7,0 20.43,-2.52552 29.18,-7.54687 8.76,-5.03959 15.56,-12.10923 20.43,-21.18751 l 31.38,9.95313 c -7.06,14.23286 -17.46,25.58884 -31.19,34.0625 -13.74,8.46003 -30.09,12.67188 -49.06,12.67188 z M 175.7,385.54362 c -12.16,0 -23.59,-2.86371 -34.28,-9.48438 -10.71,-6.62846 -19.34,-12.45394 -25.9,-22.53125 l 0,30.54688 -29.9,0 0,-192.1875 32.1,0 0,118.54687 c 5.11,14.00172 13.77,24.91479 26.08,32.76563 12.27,7.86337 26.43,12.04162 42.48,12.53125 l 0,29.45312 c -1.23,0.24027 -2.68,0.35938 -4.37,0.35938 l -6.21,0 z m 859.58,0 c -12.16,0 -23.59,-2.86371 -34.28,-9.48438 -10.72,-6.62846 -19.36,-12.45394 -25.92,-22.53125 l 0,30.54688 -29.88,0 0,-192.1875 32.08,0 0,118.54687 c 5.11,14.00172 13.77,24.91479 26.08,32.76563 12.27,7.86337 26.43,12.04162 42.48,12.53125 l 0,29.45312 c -1.23,0.24027 -2.68,0.35938 -4.37,0.35938 l -6.19,0 z M -135.19,363.0905 c 8.52,0 16.55,-1.53311 24.08,-4.59375 7.55,-3.07772 14.17,-7.29919 19.88,-12.70313 5.71,-5.40393 10.45,-11.96387 14.23,-19.70312 3.77,-7.72559 6,-16.14959 6.73,-25.21875 l -129.11,0 c 0.74,9.06916 2.88,17.42635 6.4,25.03124 3.51,7.61971 8.14,14.17313 13.85,19.68751 5.71,5.52917 12.35,9.82853 19.88,12.90625 7.53,3.06064 15.55,4.59375 24.06,4.59375 z m 417.6,0 c 8.51,0 16.52,-1.53311 24.06,-4.59375 7.53,-3.07772 14.17,-7.29919 19.89,-12.70313 5.71,-5.40393 10.44,-11.96387 14.22,-19.70312 3.77,-7.72559 6.01,-16.14959 6.75,-25.21875 l -129.11,0 c 0.73,9.06916 2.85,17.42635 6.37,25.03124 3.53,7.61971 8.16,14.17313 13.88,19.68751 5.72,5.52917 12.32,9.82853 19.86,12.90625 7.53,3.06064 15.56,4.59375 24.08,4.59375 z m 363.57,0 c 8.51,0 16.51,-1.53311 24.05,-4.59375 7.54,-3.07772 14.16,-7.29919 19.89,-12.70313 5.71,-5.40393 10.45,-11.96387 14.22,-19.70312 3.77,-7.72559 6.03,-16.14959 6.77,-25.21875 l -129.13,0 c 0.73,9.06916 2.86,17.42635 6.39,25.03124 3.52,7.61971 8.13,14.17313 13.86,19.68751 5.71,5.52917 12.33,9.82853 19.88,12.90625 7.53,3.06064 15.56,4.59375 24.07,4.59375 z m 185.41,-75.10938 c 7.78,0 15.87,-0.78775 24.27,-2.375 8.39,-1.59296 16.35,-4.71973 23.89,-7.65625 l 0,-19.79688 c 0,-5.82668 -2.32,-12.10317 -6.94,-18.82812 -5.61,-7.93681 -13.25,-14.68863 -22.99,-20.1875 -9.71,-5.49887 -19.68,-6.625 -29.89,-6.625 -6.81,0 -12.89,1.04701 -18.23,3.125 -5.35,2.09052 -9.85,4.85822 -13.5,8.29687 -3.64,3.43298 -6.45,7.41571 -8.39,11.95313 -1.95,4.54086 -2.92,9.26551 -2.92,14.17187 0,11.78254 5,21.05132 14.97,27.81251 9.97,6.74751 23.2,10.10937 39.73,10.10937 z"
         id="path3375"
         inkscape:connector-curvature="0" /><path
         style="fill:#429da2;fill-opacity:1"
         d="M 278.85938,1151.9981 C 230.74051,1151.9981 192,1113.2732 192,1065.1544 l 0,-434.29693 c 0,-48.11887 38.74051,-86.85938 86.85938,-86.85938 l 97.14062,0 0,64 -66.42187,0 C 279.89955,607.99809 256,631.89764 256,661.57621 l 0,372.85939 c 0,29.6786 23.89955,53.5625 53.57813,53.5625 l 66.42187,0 0,64 -97.14062,0 z m 337.14062,0 0,-64 66.42187,0 c 29.67858,0 53.57813,-23.8839 53.57813,-53.5625 l 0,-372.85939 c 0,-29.67857 -23.89955,-53.57812 -53.57813,-53.57812 l -66.42187,0 0,-64 97.14062,0 c 48.11887,0 86.85938,38.74051 86.85938,86.85938 l 0,434.29693 c 0,48.1188 -38.74051,86.8437 -86.85938,86.8437 l -97.14062,0 z"
         id="rect3393"
         inkscape:connector-curvature="0" /><path
         d="m 640,908.04329 c 0,69.88271 -28.2561,117.20131 -99.18071,117.20131 -53.94614,0 -98.36321,-15.7055 -130.03143,-53.8315 l -3.39289,44.3228 -55.39497,0.261 0,-335.99881 64,0 0,227.2288 c 14.48885,37.2623 62.45222,68.96501 104.65732,68.35331 55.48981,-0.8043 53.78072,-59.46931 55.34268,-99.13261 l 0,-196.4495 64,0"
         style="fill:#4b4e58;fill-opacity:1;fill-rule:nonzero;stroke:none"
         id="path3375-5"
         inkscape:connector-curvature="0"
         sodipodi:nodetypes="cccccccccccc" /></g><g
       inkscape:groupmode="layer"
       id="layer2"
       inkscape:label="Measures"
       style="display:inline"><path
         style="color:#000000;font-style:normal;font-variant:normal;font-weight:normal;font-stretch:normal;font-size:medium;line-height:normal;font-family:sans-serif;text-indent:0;text-align:start;text-decoration:none;text-decoration-line:none;text-decoration-style:solid;text-decoration-color:#000000;letter-spacing:normal;word-spacing:normal;text-transform:none;direction:ltr;block-progression:tb;writing-mode:lr-tb;baseline-shift:baseline;text-anchor:start;white-space:normal;clip-rule:nonzero;display:inline;overflow:visible;visibility:visible;opacity:1;isolation:auto;mix-blend-mode:normal;color-interpolation:sRGB;color-interpolation-filters:linearRGB;solid-color:#000000;solid-opacity:1;fill:#000000;fill-opacity:1;fill-rule:evenodd;stroke:none;stroke-width:2.68111372;stroke-linecap:butt;stroke-linejoin:miter;stroke-miterlimit:4;stroke-dasharray:none;stroke-dashoffset:0;stroke-opacity:1;color-rendering:auto;image-rendering:auto;shape-rendering:auto;text-rendering:auto;enable-background:accumulate"
         d="m -7.0328895,109.2 37.4685065,0 0,-0.4 -37.4685065,0 0,0.4 z"
         id="path3465-7"
         inkscape:connector-curvature="0" /><path
         style="color:#000000;font-style:normal;font-variant:normal;font-weight:normal;font-stretch:normal;font-size:medium;line-height:normal;font-family:sans-serif;text-indent:0;text-align:start;text-decoration:none;text-decoration-line:none;text-decoration-style:solid;text-decoration-color:#000000;letter-spacing:normal;word-spacing:normal;text-transform:none;direction:ltr;block-progression:tb;writing-mode:lr-tb;baseline-shift:baseline;text-anchor:start;white-space:normal;clip-rule:nonzero;display:inline;overflow:visible;visibility:visible;opacity:1;isolation:auto;mix-blend-mode:normal;color-interpolation:sRGB;color-interpolation-filters:linearRGB;solid-color:#000000;solid-opacity:1;fill:#000000;fill-opacity:1;fill-rule:evenodd;stroke:none;stroke-width:2.68111372;stroke-linecap:butt;stroke-linejoin:miter;stroke-miterlimit:4;stroke-dasharray:none;stroke-dashoffset:0;stroke-opacity:1;color-rendering:auto;image-rendering:auto;shape-rendering:auto;text-rendering:auto;enable-background:accumulate"
         d="m -7.0328895,61.2 37.4685065,0 0,-0.4 -37.4685065,0 0,0.4 z"
         id="path3465-7-5"
         inkscape:connector-curvature="0" /><g
         style="display:inline"
         id="g4357"
         transform="matrix(0.1,0,0,0.1,1.6,90.14056)"><path
           sodipodi:nodetypes="cc"
           inkscape:connector-curvature="0"
           id="path4320"
           d="m 363,216.48528 235.5,0"
           style="fill:none;fill-rule:evenodd;stroke:#000000;stroke-width:4.00851965;stroke-linecap:butt;stroke-linejoin:miter;stroke-miterlimit:4;stroke-dasharray:none;stroke-opacity:1" /><path
           sodipodi:nodetypes="ccc"
           inkscape:connector-curvature="0"
           id="path4322"
           d="m 374.5,228.48528 -12,-12 12,-12"
           style="fill:none;fill-rule:evenodd;stroke:#000000;stroke-width:4;stroke-linecap:butt;stroke-linejoin:miter;stroke-miterlimit:4;stroke-dasharray:none;stroke-opacity:1" /><path
           sodipodi:nodetypes="ccc"
           inkscape:connector-curvature="0"
           id="path4322-6"
           d="m 585.58579,228.48528 12,-12 -12,-12"
           style="fill:none;fill-rule:evenodd;stroke:#000000;stroke-width:4;stroke-linecap:butt;stroke-linejoin:miter;stroke-miterlimit:4;stroke-dasharray:none;stroke-opacity:1" /><text
           transform="scale(1,-1)"
           sodipodi:linespacing="125%"
           id="text4345"
           y="-168.20813"
           x="439.8204"
           style="font-style:normal;font-variant:normal;font-weight:normal;font-stretch:normal;font-size:40px;line-height:125%;font-family:'DejaVu Sans';-inkscape-font-specification:'DejaVu Sans';letter-spacing:0px;word-spacing:0px;fill:#000000;fill-opacity:1;stroke:none;stroke-width:1px;stroke-linecap:butt;stroke-linejoin:miter;stroke-opacity:1"
           xml:space="preserve"><tspan
             y="-168.20813"
             x="439.8204"
             id="tspan4347"
             sodipodi:role="line">2.5a</tspan></text>
</g><path
         style="color:#000000;font-style:normal;font-variant:normal;font-weight:normal;font-stretch:normal;font-size:medium;line-height:normal;font-family:sans-serif;text-indent:0;text-align:start;text-decoration:none;text-decoration-line:none;text-decoration-style:solid;text-decoration-color:#000000;letter-spacing:normal;word-spacing:normal;text-transform:none;direction:ltr;block-progression:tb;writing-mode:lr-tb;baseline-shift:baseline;text-anchor:start;white-space:normal;clip-rule:nonzero;display:inline;overflow:visible;visibility:visible;opacity:1;isolation:auto;mix-blend-mode:normal;color-interpolation:sRGB;color-interpolation-filters:linearRGB;solid-color:#000000;solid-opacity:1;fill:#000000;fill-opacity:1;fill-rule:evenodd;stroke:none;stroke-width:0.39809269;stroke-linecap:butt;stroke-linejoin:miter;stroke-miterlimit:4;stroke-dasharray:none;stroke-dashoffset:0;stroke-opacity:1;color-rendering:auto;image-rendering:auto;shape-rendering:auto;text-rendering:auto;enable-background:accumulate"
         d="m -3.6414515,107.53946 -1.342184,1.34218 -1.342192,-1.34218 0.282816,-0.28282 0.859376,0.85938 0,-46.175004 -0.859376,0.859376 -0.282816,-0.281248 1.342192,-1.342192 1.342184,1.342192 -0.284376,0.281248 -0.859376,-0.860936 0,46.178124 0.859376,-0.86094 0.284376,0.28282 z"
         id="path4320-0"
         inkscape:connector-curvature="0" /><text
         xml:space="preserve"
         style="font-style:normal;font-variant:normal;font-weight:normal;font-stretch:normal;font-size:4px;line-height:125%;font-family:'DejaVu Sans';-inkscape-font-specification:'DejaVu Sans';text-align:center;letter-spacing:0px;word-spacing:0px;text-anchor:middle;fill:#000000;fill-opacity:1;stroke:none;stroke-width:1px;stroke-linecap:butt;stroke-linejoin:miter;stroke-opacity:1"
         x="-0.4497343"
         y="-83.802299"
         id="text4345-9"
         sodipodi:linespacing="125%"
         transform="scale(1,-1)"><tspan
           sodipodi:role="line"
           id="tspan4347-6"
           x="-0.4497343"
           y="-83.802299">5a</tspan></text>
<path
         sodipodi:nodetypes="ccccccccccccccc"
         inkscape:connector-curvature="0"
         id="path4320-0-0"
         d="m 97.351489,113.85878 -1.342184,1.34219 -1.342192,-1.34219 0.284376,-0.28281 0.859376,0.86093 0,-59.243545 -0.859376,0.860938 -0.284376,-0.282813 1.342192,-1.342187 1.342184,1.342187 -0.284376,0.282813 -0.859376,-0.860938 0,59.243545 0.859376,-0.86093 z"
         style="color:#000000;font-style:normal;font-variant:normal;font-weight:normal;font-stretch:normal;font-size:medium;line-height:normal;font-family:sans-serif;text-indent:0;text-align:start;text-decoration:none;text-decoration-line:none;text-decoration-style:solid;text-decoration-color:#000000;letter-spacing:normal;word-spacing:normal;text-transform:none;direction:ltr;block-progression:tb;writing-mode:lr-tb;baseline-shift:baseline;text-anchor:start;white-space:normal;clip-rule:nonzero;display:inline;overflow:visible;visibility:visible;opacity:1;isolation:auto;mix-blend-mode:normal;color-interpolation:sRGB;color-interpolation-filters:linearRGB;solid-color:#000000;solid-opacity:1;fill:#000000;fill-opacity:1;fill-rule:evenodd;stroke:none;stroke-width:3.98092699;stroke-linecap:butt;stroke-linejoin:miter;stroke-miterlimit:4;stroke-dasharray:none;stroke-dashoffset:0;stroke-opacity:1;color-rendering:auto;image-rendering:auto;shape-rendering:auto;text-rendering:auto;enable-background:accumulate" /><text
         xml:space="preserve"
         style="font-style:normal;font-variant:normal;font-weight:normal;font-stretch:normal;font-size:4px;line-height:125%;font-family:'DejaVu Sans';-inkscape-font-specification:'DejaVu Sans';text-align:center;letter-spacing:0px;word-spacing:0px;text-anchor:middle;fill:#000000;fill-opacity:1;stroke:none;stroke-width:1px;stroke-linecap:butt;stroke-linejoin:miter;stroke-opacity:1"
         x="107.52975"
         y="-86.563881"
         id="text4345-9-0"
         sodipodi:linespacing="125%"
         transform="scale(1,-1)"><tspan
           sodipodi:role="line"
           id="tspan4347-6-1"
           x="107.52975"
           y="-86.563881">b=19/3*a</tspan></text>
<path
         style="color:#000000;font-style:normal;font-variant:normal;font-weight:normal;font-stretch:normal;font-size:medium;line-height:normal;font-family:sans-serif;text-indent:0;text-align:start;text-decoration:none;text-decoration-line:none;text-decoration-style:solid;text-decoration-color:#000000;letter-spacing:normal;word-spacing:normal;text-transform:none;direction:ltr;block-progression:tb;writing-mode:lr-tb;baseline-shift:baseline;text-anchor:start;white-space:normal;clip-rule:nonzero;display:inline;overflow:visible;visibility:visible;opacity:1;isolation:auto;mix-blend-mode:normal;color-interpolation:sRGB;color-interpolation-filters:linearRGB;solid-color:#000000;solid-opacity:1;fill:#000000;fill-opacity:1;fill-rule:evenodd;stroke:none;stroke-width:2.18314934;stroke-linecap:butt;stroke-linejoin:miter;stroke-miterlimit:4;stroke-dasharray:none;stroke-dashoffset:0;stroke-opacity:1;color-rendering:auto;image-rendering:auto;shape-rendering:auto;text-rendering:auto;enable-background:accumulate"
         d="m 34.662496,63.672185 0,4.289453 0.4,0 0,-4.289453 -0.4,0 z"
         id="path3465-6"
         inkscape:connector-curvature="0" /><path
         style="color:#000000;font-style:normal;font-variant:normal;font-weight:normal;font-stretch:normal;font-size:medium;line-height:normal;font-family:sans-serif;text-indent:0;text-align:start;text-decoration:none;text-decoration-line:none;text-decoration-style:solid;text-decoration-color:#000000;letter-spacing:normal;word-spacing:normal;text-transform:none;direction:ltr;block-progression:tb;writing-mode:lr-tb;baseline-shift:baseline;text-anchor:start;white-space:normal;clip-rule:nonzero;display:inline;overflow:visible;visibility:visible;opacity:1;isolation:auto;mix-blend-mode:normal;color-interpolation:sRGB;color-interpolation-filters:linearRGB;solid-color:#000000;solid-opacity:1;fill:#000000;fill-opacity:1;fill-rule:evenodd;stroke:none;stroke-width:2.18314934;stroke-linecap:butt;stroke-linejoin:miter;stroke-miterlimit:4;stroke-dasharray:none;stroke-dashoffset:0;stroke-opacity:1;color-rendering:auto;image-rendering:auto;shape-rendering:auto;text-rendering:auto;enable-background:accumulate"
         d="m 63.90566,63.672185 0,4.290039 0.4,0 0,-4.290039 -0.4,0 z"
         id="path3465-7-5-3-0"
         inkscape:connector-curvature="0" /><g
         style="display:inline"
         transform="matrix(0.1,0,0,0.1,1.3912075,44.193273)"
         id="g4357-6-9-2"><path
           style="color:#000000;font-style:normal;font-variant:normal;font-weight:normal;font-stretch:normal;font-size:medium;line-height:normal;font-family:sans-serif;text-indent:0;text-align:start;text-decoration:none;text-decoration-line:none;text-decoration-style:solid;text-decoration-color:#000000;letter-spacing:normal;word-spacing:normal;text-transform:none;direction:ltr;block-progression:tb;writing-mode:lr-tb;baseline-shift:baseline;text-anchor:start;white-space:normal;clip-rule:nonzero;display:inline;overflow:visible;visibility:visible;opacity:1;isolation:auto;mix-blend-mode:normal;color-interpolation:sRGB;color-interpolation-filters:linearRGB;solid-color:#000000;solid-opacity:1;fill:#000000;fill-opacity:1;fill-rule:evenodd;stroke:none;stroke-width:3.98092699;stroke-linecap:butt;stroke-linejoin:miter;stroke-miterlimit:4;stroke-dasharray:none;stroke-dashoffset:0;stroke-opacity:1;color-rendering:auto;image-rendering:auto;shape-rendering:auto;text-rendering:auto;enable-background:accumulate"
           d="m 43.531902,109.88672 -1.677734,1.67773 1.677734,1.67774 0.353516,-0.35547 -1.076172,-1.07422 34.340074,0 -1.076172,1.07422 0.353516,0.35547 1.677734,-1.67774 -1.677734,-1.67773 -0.353516,0.35547 1.076172,1.07422 -34.340074,0 1.076172,-1.07422 z"
           transform="matrix(8,0,0,-8,-7.1247462e-6,1109)"
           id="path4320-0-0-8"
           inkscape:connector-curvature="0"
           sodipodi:nodetypes="ccccccccccccccc" /><text
           transform="scale(1,-1)"
           sodipodi:linespacing="125%"
           id="text4345-9-0-8"
           y="-168.20813"
           x="482.95126"
           style="font-style:normal;font-variant:normal;font-weight:normal;font-stretch:normal;font-size:40px;line-height:125%;font-family:'DejaVu Sans';-inkscape-font-specification:'DejaVu Sans';text-align:center;letter-spacing:0px;word-spacing:0px;text-anchor:middle;fill:#000000;fill-opacity:1;stroke:none;stroke-width:1px;stroke-linecap:butt;stroke-linejoin:miter;stroke-opacity:1"
           xml:space="preserve"><tspan
             y="-168.20813"
             x="482.95126"
             id="tspan4347-6-1-4"
             sodipodi:role="line">3a</tspan></text>
</g><path
         style="color:#000000;font-style:normal;font-variant:normal;font-weight:normal;font-stretch:normal;font-size:medium;line-height:normal;font-family:sans-serif;text-indent:0;text-align:start;text-decoration:none;text-decoration-line:none;text-decoration-style:solid;text-decoration-color:#000000;letter-spacing:normal;word-spacing:normal;text-transform:none;direction:ltr;block-progression:tb;writing-mode:lr-tb;baseline-shift:baseline;text-anchor:start;white-space:normal;clip-rule:nonzero;display:inline;overflow:visible;visibility:visible;opacity:1;isolation:auto;mix-blend-mode:normal;color-interpolation:sRGB;color-interpolation-filters:linearRGB;solid-color:#000000;solid-opacity:1;fill:#000000;fill-opacity:1;fill-rule:evenodd;stroke:none;stroke-width:2.18314934;stroke-linecap:butt;stroke-linejoin:miter;stroke-miterlimit:4;stroke-dasharray:none;stroke-dashoffset:0;stroke-opacity:1;color-rendering:auto;image-rendering:auto;shape-rendering:auto;text-rendering:auto;enable-background:accumulate"
         d="m 35.08884,101.67796 -32.0922195,0 0,0.4 32.0922195,0 0,-0.4 z"
         id="path3465-6-9"
         inkscape:connector-curvature="0" /><path
         style="color:#000000;font-style:normal;font-variant:normal;font-weight:normal;font-stretch:normal;font-size:medium;line-height:normal;font-family:sans-serif;text-indent:0;text-align:start;text-decoration:none;text-decoration-line:none;text-decoration-style:solid;text-decoration-color:#000000;letter-spacing:normal;word-spacing:normal;text-transform:none;direction:ltr;block-progression:tb;writing-mode:lr-tb;baseline-shift:baseline;text-anchor:start;white-space:normal;clip-rule:nonzero;display:inline;overflow:visible;visibility:visible;opacity:1;isolation:auto;mix-blend-mode:normal;color-interpolation:sRGB;color-interpolation-filters:linearRGB;solid-color:#000000;solid-opacity:1;fill:#000000;fill-opacity:1;fill-rule:evenodd;stroke:none;stroke-width:2.18314934;stroke-linecap:butt;stroke-linejoin:miter;stroke-miterlimit:4;stroke-dasharray:none;stroke-dashoffset:0;stroke-opacity:1;color-rendering:auto;image-rendering:auto;shape-rendering:auto;text-rendering:auto;enable-background:accumulate"
         d="m 35.093224,67.670156 -32.0966035,0 0,0.4 32.0966035,0 0,-0.4 z"
         id="path3465-7-5-3-0-8"
         inkscape:connector-curvature="0" /><path
         sodipodi:nodetypes="ccccccccccccccc"
         inkscape:connector-curvature="0"
         id="path4320-0-0-8-4"
         d="m 6.5886934,100.33272 -1.3421839,1.34219 -1.342192,-1.34219 0.284376,-0.28281 0.859376,0.86093 0,-32.130636 -0.859376,0.860938 -0.284376,-0.282813 1.342192,-1.342187 1.3421839,1.342187 -0.284376,0.282813 -0.8593759,-0.860938 0,32.130636 0.8593759,-0.86093 z"
         style="color:#000000;font-style:normal;font-variant:normal;font-weight:normal;font-stretch:normal;font-size:medium;line-height:normal;font-family:sans-serif;text-indent:0;text-align:start;text-decoration:none;text-decoration-line:none;text-decoration-style:solid;text-decoration-color:#000000;letter-spacing:normal;word-spacing:normal;text-transform:none;direction:ltr;block-progression:tb;writing-mode:lr-tb;baseline-shift:baseline;text-anchor:start;white-space:normal;clip-rule:nonzero;display:inline;overflow:visible;visibility:visible;opacity:1;isolation:auto;mix-blend-mode:normal;color-interpolation:sRGB;color-interpolation-filters:linearRGB;solid-color:#000000;solid-opacity:1;fill:#000000;fill-opacity:1;fill-rule:evenodd;stroke:none;stroke-width:3.98092699;stroke-linecap:butt;stroke-linejoin:miter;stroke-miterlimit:4;stroke-dasharray:none;stroke-dashoffset:0;stroke-opacity:1;color-rendering:auto;image-rendering:auto;shape-rendering:auto;text-rendering:auto;enable-background:accumulate" /><text
         xml:space="preserve"
         style="font-style:normal;font-variant:normal;font-weight:normal;font-stretch:normal;font-size:4px;line-height:125%;font-family:'DejaVu Sans';-inkscape-font-specification:'DejaVu Sans';text-align:center;letter-spacing:0px;word-spacing:0px;text-anchor:middle;display:inline;fill:#000000;fill-opacity:1;stroke:none;stroke-width:1px;stroke-linecap:butt;stroke-linejoin:miter;stroke-opacity:1"
         x="10.641053"
         y="-83.584579"
         id="text4345-9-0-8-4"
         sodipodi:linespacing="125%"
         transform="scale(1,-1)"><tspan
           sodipodi:role="line"
           id="tspan4347-6-1-4-9"
           x="10.641053"
           y="-83.584579">3.5a</tspan></text>
<path
         style="color:#000000;font-style:normal;font-variant:normal;font-weight:normal;font-stretch:normal;font-size:medium;line-height:normal;font-family:sans-serif;text-indent:0;text-align:start;text-decoration:none;text-decoration-line:none;text-decoration-style:solid;text-decoration-color:#000000;letter-spacing:normal;word-spacing:normal;text-transform:none;direction:ltr;block-progression:tb;writing-mode:lr-tb;baseline-shift:baseline;text-anchor:start;white-space:normal;clip-rule:nonzero;display:inline;overflow:visible;visibility:visible;opacity:1;isolation:auto;mix-blend-mode:normal;color-interpolation:sRGB;color-interpolation-filters:linearRGB;solid-color:#000000;solid-opacity:1;fill:#000000;fill-opacity:1;fill-rule:evenodd;stroke:none;stroke-width:4.6367116;stroke-linecap:butt;stroke-linejoin:miter;stroke-miterlimit:4;stroke-dasharray:none;stroke-dashoffset:0;stroke-opacity:1;color-rendering:auto;image-rendering:auto;shape-rendering:auto;text-rendering:auto;enable-background:accumulate"
         d="m -41.88,11.547566 0,7.682527 0.4,0 0,-7.682527 -0.4,0 z"
         id="path3465-7-5-3-2"
         inkscape:connector-curvature="0" /><g
         style="display:inline"
         transform="matrix(0.1,0,0,0.1,112.96941,-8.2339564)"
         id="g4357-6-9-4-6"><path
           style="color:#000000;font-style:normal;font-variant:normal;font-weight:normal;font-stretch:normal;font-size:medium;line-height:normal;font-family:sans-serif;text-indent:0;text-align:start;text-decoration:none;text-decoration-line:none;text-decoration-style:solid;text-decoration-color:#000000;letter-spacing:normal;word-spacing:normal;text-transform:none;direction:ltr;block-progression:tb;writing-mode:lr-tb;baseline-shift:baseline;text-anchor:start;white-space:normal;clip-rule:nonzero;display:inline;overflow:visible;visibility:visible;opacity:1;isolation:auto;mix-blend-mode:normal;color-interpolation:sRGB;color-interpolation-filters:linearRGB;solid-color:#000000;solid-opacity:1;fill:#000000;fill-opacity:1;fill-rule:evenodd;stroke:none;stroke-width:3.98092699;stroke-linecap:butt;stroke-linejoin:miter;stroke-miterlimit:4;stroke-dasharray:none;stroke-dashoffset:0;stroke-opacity:1;color-rendering:auto;image-rendering:auto;shape-rendering:auto;text-rendering:auto;enable-background:accumulate"
           d="m -191.22072,109.88672 -1.67774,1.67773 1.67774,1.67774 0.35351,-0.35547 -1.07617,-1.07422 225.78084,0 -1.076172,1.07422 0.353516,0.35547 1.677734,-1.67774 -1.677734,-1.67773 -0.353516,0.35547 1.076172,1.07422 -225.78084,0 1.07617,-1.07422 z"
           transform="matrix(8,0,0,-8,-7.1247462e-6,1109)"
           id="path4320-0-0-2-8"
           inkscape:connector-curvature="0"
           sodipodi:nodetypes="ccccccccccccccc" /><text
           transform="scale(1,-1)"
           sodipodi:linespacing="125%"
           id="text4345-9-0-5-1"
           y="-168.20813"
           x="-618.04871"
           style="font-style:normal;font-variant:normal;font-weight:normal;font-stretch:normal;font-size:40px;line-height:125%;font-family:'DejaVu Sans';-inkscape-font-specification:'DejaVu Sans';text-align:center;letter-spacing:0px;word-spacing:0px;text-anchor:middle;fill:#000000;fill-opacity:1;stroke:none;stroke-width:1px;stroke-linecap:butt;stroke-linejoin:miter;stroke-opacity:1"
           xml:space="preserve"><tspan
             y="-168.20813"
             x="-618.04871"
             id="tspan4347-6-1-5-2"
             sodipodi:role="line">3b=19a</tspan></text>
</g><path
         style="color:#000000;font-style:normal;font-variant:normal;font-weight:normal;font-stretch:normal;font-size:medium;line-height:normal;font-family:sans-serif;text-indent:0;text-align:start;text-decoration:none;text-decoration-line:none;text-decoration-style:solid;text-decoration-color:#000000;letter-spacing:normal;word-spacing:normal;text-transform:none;direction:ltr;block-progression:tb;writing-mode:lr-tb;baseline-shift:baseline;text-anchor:start;white-space:normal;clip-rule:nonzero;display:inline;overflow:visible;visibility:visible;opacity:1;isolation:auto;mix-blend-mode:normal;color-interpolation:sRGB;color-interpolation-filters:linearRGB;solid-color:#000000;solid-opacity:1;fill:#000000;fill-opacity:1;fill-rule:evenodd;stroke:none;stroke-width:2.18314934;stroke-linecap:butt;stroke-linejoin:miter;stroke-miterlimit:4;stroke-dasharray:none;stroke-dashoffset:0;stroke-opacity:1;color-rendering:auto;image-rendering:auto;shape-rendering:auto;text-rendering:auto;enable-background:accumulate"
         d="m 94.48357,38.4002 54.1837,0 0,0.4 -54.1837,0 0,-0.4 z"
         id="path3465-6-9-0"
         inkscape:connector-curvature="0" /><path
         style="color:#000000;font-style:normal;font-variant:normal;font-weight:normal;font-stretch:normal;font-size:medium;line-height:normal;font-family:sans-serif;text-indent:0;text-align:start;text-decoration:none;text-decoration-line:none;text-decoration-style:solid;text-decoration-color:#000000;letter-spacing:normal;word-spacing:normal;text-transform:none;direction:ltr;block-progression:tb;writing-mode:lr-tb;baseline-shift:baseline;text-anchor:start;white-space:normal;clip-rule:nonzero;display:inline;overflow:visible;visibility:visible;opacity:1;isolation:auto;mix-blend-mode:normal;color-interpolation:sRGB;color-interpolation-filters:linearRGB;solid-color:#000000;solid-opacity:1;fill:#000000;fill-opacity:1;fill-rule:evenodd;stroke:none;stroke-width:2.18314934;stroke-linecap:butt;stroke-linejoin:miter;stroke-miterlimit:4;stroke-dasharray:none;stroke-dashoffset:0;stroke-opacity:1;color-rendering:auto;image-rendering:auto;shape-rendering:auto;text-rendering:auto;enable-background:accumulate"
         d="m 137.59463,18.766649 11.07266,0 0,0.4 -11.07266,0 0,-0.4 z"
         id="path3465-7-5-3-0-8-3"
         inkscape:connector-curvature="0" /><path
         sodipodi:nodetypes="ccccccccccccccc"
         inkscape:connector-curvature="0"
         id="path4320-0-0-8-4-2"
         d="m 147.94505,37.098826 -1.34219,1.342187 -1.3422,-1.342187 0.28439,-0.282813 0.85937,0.860937 0,-17.630117 -0.85937,0.860938 -0.28439,-0.282813 1.3422,-1.342187 1.34219,1.342187 -0.28439,0.282813 -0.85936,-0.860938 0,17.630117 0.85936,-0.860937 z"
         style="color:#000000;font-style:normal;font-variant:normal;font-weight:normal;font-stretch:normal;font-size:medium;line-height:normal;font-family:sans-serif;text-indent:0;text-align:start;text-decoration:none;text-decoration-line:none;text-decoration-style:solid;text-decoration-color:#000000;letter-spacing:normal;word-spacing:normal;text-transform:none;direction:ltr;block-progression:tb;writing-mode:lr-tb;baseline-shift:baseline;text-anchor:start;white-space:normal;clip-rule:nonzero;display:inline;overflow:visible;visibility:visible;opacity:1;isolation:auto;mix-blend-mode:normal;color-interpolation:sRGB;color-interpolation-filters:linearRGB;solid-color:#000000;solid-opacity:1;fill:#000000;fill-opacity:1;fill-rule:evenodd;stroke:none;stroke-width:3.98092699;stroke-linecap:butt;stroke-linejoin:miter;stroke-miterlimit:4;stroke-dasharray:none;stroke-dashoffset:0;stroke-opacity:1;color-rendering:auto;image-rendering:auto;shape-rendering:auto;text-rendering:auto;enable-background:accumulate" /><text
         xml:space="preserve"
         style="font-style:normal;font-variant:normal;font-weight:normal;font-stretch:normal;font-size:4px;line-height:125%;font-family:'DejaVu Sans';-inkscape-font-specification:'DejaVu Sans';text-align:center;letter-spacing:0px;word-spacing:0px;text-anchor:middle;display:inline;fill:#000000;fill-opacity:1;stroke:none;stroke-width:1px;stroke-linecap:butt;stroke-linejoin:miter;stroke-opacity:1"
         x="154.20251"
         y="-25.94203"
         id="text4345-9-0-8-4-8"
         sodipodi:linespacing="125%"
         transform="scale(1,-1)"><tspan
           sodipodi:role="line"
           id="tspan4347-6-1-4-9-7"
           x="154.20251"
           y="-25.94203">2a</tspan></text>
<path
         style="color:#000000;font-style:normal;font-variant:normal;font-weight:normal;font-stretch:normal;font-size:medium;line-height:normal;font-family:sans-serif;text-indent:0;text-align:start;text-decoration:none;text-decoration-line:none;text-decoration-style:solid;text-decoration-color:#000000;letter-spacing:normal;word-spacing:normal;text-transform:none;direction:ltr;block-progression:tb;writing-mode:lr-tb;baseline-shift:baseline;text-anchor:start;white-space:normal;clip-rule:nonzero;display:inline;overflow:visible;visibility:visible;opacity:1;isolation:auto;mix-blend-mode:normal;color-interpolation:sRGB;color-interpolation-filters:linearRGB;solid-color:#000000;solid-opacity:1;fill:#000000;fill-opacity:1;fill-rule:evenodd;stroke:none;stroke-width:4.6367116;stroke-linecap:butt;stroke-linejoin:miter;stroke-miterlimit:4;stroke-dasharray:none;stroke-dashoffset:0;stroke-opacity:1;color-rendering:auto;image-rendering:auto;shape-rendering:auto;text-rendering:auto;enable-background:accumulate"
         d="m 140.83318,11.547566 0,7.682527 0.4,0 0,-7.682527 -0.4,0 z"
         id="path3465-7-5-3-2-9"
         inkscape:connector-curvature="0" /><path
         style="color:#000000;font-style:normal;font-variant:normal;font-weight:normal;font-stretch:normal;font-size:medium;line-height:normal;font-family:sans-serif;text-indent:0;text-align:start;text-decoration:none;text-decoration-line:none;text-decoration-style:solid;text-decoration-color:#000000;letter-spacing:normal;word-spacing:normal;text-transform:none;direction:ltr;block-progression:tb;writing-mode:lr-tb;baseline-shift:baseline;text-anchor:start;white-space:normal;clip-rule:nonzero;display:inline;overflow:visible;visibility:visible;opacity:1;isolation:auto;mix-blend-mode:normal;color-interpolation:sRGB;color-interpolation-filters:linearRGB;solid-color:#000000;solid-opacity:1;fill:#000000;fill-opacity:1;fill-rule:evenodd;stroke:none;stroke-width:2.18314934;stroke-linecap:butt;stroke-linejoin:miter;stroke-miterlimit:4;stroke-dasharray:none;stroke-dashoffset:0;stroke-opacity:1;color-rendering:auto;image-rendering:auto;shape-rendering:auto;text-rendering:auto;enable-background:accumulate"
         d="m 61.642318,54 36.909952,0 0,0.4 -36.909952,0 0,-0.4 z"
         id="path3465-6-9-0-3"
         inkscape:connector-curvature="0" /><path
         sodipodi:nodetypes="ccccccccccccccc"
         inkscape:connector-curvature="0"
         id="path4320-0-0-8-4-2-6"
         d="m 97.40315,52.655916 -1.342138,1.34218 -1.342148,-1.34218 0.284378,-0.28282 0.859338,0.86094 0,-13.691926 -0.859338,0.86094 -0.284378,-0.28281 1.342148,-1.34219 1.342138,1.34219 -0.284378,0.28281 -0.859328,-0.86094 0,13.691926 0.859328,-0.86094 z"
         style="color:#000000;font-style:normal;font-variant:normal;font-weight:normal;font-stretch:normal;font-size:medium;line-height:normal;font-family:sans-serif;text-indent:0;text-align:start;text-decoration:none;text-decoration-line:none;text-decoration-style:solid;text-decoration-color:#000000;letter-spacing:normal;word-spacing:normal;text-transform:none;direction:ltr;block-progression:tb;writing-mode:lr-tb;baseline-shift:baseline;text-anchor:start;white-space:normal;clip-rule:nonzero;display:inline;overflow:visible;visibility:visible;opacity:1;isolation:auto;mix-blend-mode:normal;color-interpolation:sRGB;color-interpolation-filters:linearRGB;solid-color:#000000;solid-opacity:1;fill:#000000;fill-opacity:1;fill-rule:evenodd;stroke:none;stroke-width:3.98092699;stroke-linecap:butt;stroke-linejoin:miter;stroke-miterlimit:4;stroke-dasharray:none;stroke-dashoffset:0;stroke-opacity:1;color-rendering:auto;image-rendering:auto;shape-rendering:auto;text-rendering:auto;enable-background:accumulate" /><text
         xml:space="preserve"
         style="font-style:normal;font-variant:normal;font-weight:normal;font-stretch:normal;font-size:4px;line-height:125%;font-family:'DejaVu Sans';-inkscape-font-specification:'DejaVu Sans';text-align:center;letter-spacing:0px;word-spacing:0px;text-anchor:middle;display:inline;fill:#000000;fill-opacity:1;stroke:none;stroke-width:1px;stroke-linecap:butt;stroke-linejoin:miter;stroke-opacity:1"
         x="104.28704"
         y="-45.437305"
         id="text4345-9-0-8-4-8-7"
         sodipodi:linespacing="125%"
         transform="scale(1,-1)"><tspan
           sodipodi:role="line"
           id="tspan4347-6-1-4-9-7-5"
           x="104.28704"
           y="-45.437305">5/3*a</tspan></text>
<path
         style="color:#000000;font-style:normal;font-variant:normal;font-weight:normal;font-stretch:normal;font-size:medium;line-height:normal;font-family:sans-serif;text-indent:0;text-align:start;text-decoration:none;text-decoration-line:none;text-decoration-style:solid;text-decoration-color:#000000;letter-spacing:normal;word-spacing:normal;text-transform:none;direction:ltr;block-progression:tb;writing-mode:lr-tb;baseline-shift:baseline;text-anchor:start;white-space:normal;clip-rule:nonzero;display:inline;overflow:visible;visibility:visible;opacity:1;isolation:auto;mix-blend-mode:normal;color-interpolation:sRGB;color-interpolation-filters:linearRGB;solid-color:#000000;solid-opacity:1;fill:#000000;fill-opacity:1;fill-rule:evenodd;stroke:none;stroke-width:2.18314934;stroke-linecap:butt;stroke-linejoin:miter;stroke-miterlimit:4;stroke-dasharray:none;stroke-dashoffset:0;stroke-opacity:1;color-rendering:auto;image-rendering:auto;shape-rendering:auto;text-rendering:auto;enable-background:accumulate"
         d="m 61.64232,115.2 36.90995,0 0,0.4 -36.90995,0 0,-0.4 z"
         id="path3465-6-9-0-3-5"
         inkscape:connector-curvature="0" /></g></g></svg>