<?xml version="1.0" encoding="UTF-8" standalone="no"?>
<!-- Created with Inkscape (http://www.inkscape.org/) -->

<svg
   xmlns:dc="http://purl.org/dc/elements/1.1/"
   xmlns:cc="http://creativecommons.org/ns#"
   xmlns:rdf="http://www.w3.org/1999/02/22-rdf-syntax-ns#"
   xmlns:svg="http://www.w3.org/2000/svg"
   xmlns="http://www.w3.org/2000/svg"
   xmlns:sodipodi="http://sodipodi.sourceforge.net/DTD/sodipodi-0.dtd"
   xmlns:inkscape="http://www.inkscape.org/namespaces/inkscape"
   id="svg3355"
   version="1.1"
   inkscape:version="0.91 r13725"
   xml:space="preserve"
   width="276"
   height="170"
   viewBox="0 0 275.99999 170"
   sodipodi:docname="netresearch-logo_portrait_measures.svg"><metadata
     id="metadata3361"><rdf:RDF><cc:Work
         rdf:about=""><dc:format>image/svg+xml</dc:format><dc:type
           rdf:resource="http://purl.org/dc/dcmitype/StillImage" /><dc:title></dc:title></cc:Work></rdf:RDF></metadata><defs
     id="defs3359"><clipPath
       clipPathUnits="userSpaceOnUse"
       id="clipPath3371"><path
         d="m 798.578,305.559 1610.872,0 0,239.269 -1610.872,0 0,-239.269 z"
         id="path3373"
         inkscape:connector-curvature="0" /></clipPath><clipPath
       clipPathUnits="userSpaceOnUse"
       id="clipPath3381"><path
         d="m 291.508,263.742 268.504,0 0,322.918 -268.504,0 0,-322.918 z"
         id="path3383"
         inkscape:connector-curvature="0" /></clipPath><clipPath
       clipPathUnits="userSpaceOnUse"
       id="clipPath3371-9"><path
         d="m 798.578,305.559 1610.872,0 0,239.269 -1610.872,0 0,-239.269 z"
         id="path3373-3"
         inkscape:connector-curvature="0" /></clipPath><clipPath
       clipPathUnits="userSpaceOnUse"
       id="clipPath3371-6"><path
         d="m 798.578,305.559 1610.872,0 0,239.269 -1610.872,0 0,-239.269 z"
         id="path3373-1"
         inkscape:connector-curvature="0" /></clipPath></defs><sodipodi:namedview
     pagecolor="#ffffff"
     bordercolor="#666666"
     borderopacity="1"
     objecttolerance="10"
     gridtolerance="10"
     guidetolerance="10"
     inkscape:pageopacity="0"
     inkscape:pageshadow="2"
     inkscape:window-width="1920"
     inkscape:window-height="1021"
     id="namedview3357"
     showgrid="false"
     showguides="false"
     inkscape:guide-bbox="true"
     inkscape:zoom="2"
     inkscape:cx="192.15023"
     inkscape:cy="69.007474"
     inkscape:window-x="1920"
     inkscape:window-y="0"
     inkscape:window-maximized="1"
     inkscape:current-layer="g3365"
     fit-margin-top="24"
     fit-margin-left="24"
     fit-margin-right="24"
     fit-margin-bottom="24"><sodipodi:guide
       position="180.82361,136"
       orientation="0,1"
       id="guide4250"
       inkscape:label=""
       inkscape:color="rgb(0,0,255)" /><sodipodi:guide
       position="191.89652,68"
       orientation="0,1"
       id="guide4252"
       inkscape:label=""
       inkscape:color="rgb(0,0,255)" /><sodipodi:guide
       position="209.24409,127"
       orientation="0,1"
       id="guide4254"
       inkscape:label=""
       inkscape:color="rgb(0,0,255)" /><sodipodi:guide
       position="194.8493,76"
       orientation="0,1"
       id="guide4256"
       inkscape:label=""
       inkscape:color="rgb(0,0,255)" /><sodipodi:guide
       position="214.04236,85"
       orientation="0,1"
       id="guide4258"
       inkscape:label=""
       inkscape:color="rgb(0,0,255)" /><sodipodi:guide
       position="183.77639,24"
       orientation="0,1"
       id="guide4260"
       inkscape:label=""
       inkscape:color="rgb(0,0,255)" /><sodipodi:guide
       position="11.026876,48"
       orientation="0,1"
       id="guide3424"
       inkscape:label=""
       inkscape:color="rgb(0,0,255)" /></sodipodi:namedview><g
     id="g3363"
     inkscape:groupmode="layer"
     inkscape:label="ink_ext_XXXXXX"
     transform="matrix(1.25,0,0,-1.25,76,170)"><g
       id="g3365"
       transform="scale(0.1,0.1)"><path
         style="fill:#2f99a4;fill-opacity:1"
         d="M 278.85938,1151.9981 C 230.74051,1151.9981 192,1113.2732 192,1065.1544 l 0,-434.29693 c 0,-48.11887 38.74051,-86.85938 86.85938,-86.85938 l 97.14062,0 0,64 -66.42187,0 C 279.89955,607.99809 256,631.89764 256,661.57621 l 0,372.85939 c 0,29.6786 23.89955,53.5625 53.57813,53.5625 l 66.42187,0 0,64 -97.14062,0 z m 337.14062,0 0,-64 66.42187,0 c 29.67858,0 53.57813,-23.8839 53.57813,-53.5625 l 0,-372.85939 c 0,-29.67857 -23.89955,-53.57812 -53.57813,-53.57812 l -66.42187,0 0,-64 97.14062,0 c 48.11887,0 86.85938,38.74051 86.85938,86.85938 l 0,434.29693 c 0,48.1188 -38.74051,86.8437 -86.85938,86.8437 l -97.14062,0 z"
         id="rect3393"
         inkscape:connector-curvature="0" /><path
         d="m 640,908.04518 c 0,69.8827 -28.2561,117.20132 -99.18071,117.20132 -53.94614,0 -98.36321,-15.7055 -130.03143,-53.83152 l -3.39289,44.32282 -55.39497,0.261 0,-335.99882 64,0 0,227.2288 c 14.48885,37.2624 62.45222,68.9651 104.65732,68.3533 55.48981,-0.8043 53.78072,-59.4693 55.34268,-99.1325 l 0,-196.4496 64,0"
         style="fill:#585961;fill-opacity:1;fill-rule:nonzero;stroke:none"
         id="path3375-5-6"
         inkscape:connector-curvature="0"
         sodipodi:nodetypes="cccccccccccc" /></g><g
       inkscape:groupmode="layer"
       id="layer1"
       inkscape:label="netresearch"
       style="display:inline"><path
         inkscape:connector-curvature="0"
         style="display:inline;opacity:1;fill:#585961;fill-opacity:1;fill-rule:nonzero;stroke:none"
         d="m 124.27969,44.8064 0,-25.606408 3.20781,0 0,11.579762 c 0.87648,2.930498 3.60535,5.043781 6.09063,5.043781 3.21825,0 4.01249,-2.909008 4.01249,-5.890667 l 0,-10.732876 3.20938,0 0,11.468821 c 0,4.220076 -1.2818,8.06099 -6.01875,8.06099 -2.96239,0 -5.68359,-1.162798 -7.29375,-3.384401 l 0,9.460998 -3.20781,0 z m -125.834378,-0.800005 0,-5.606284 -2.590624,0 0,-2.540636 2.590624,0 0,-12.90321 c 0,-2.958318 2.176664,-3.989834 4.303128,-4.012524 1.496888,0 2.64456,0.365462 3.812496,0.843755 l 0,2.668766 C 6.025056,22.175411 5.09448,21.673447 3.806248,21.673447 c -1.383368,0 -2.15312,0.907796 -2.15312,2.095323 l 0,12.090705 4.268744,0 0,2.540636 -4.268744,0 0,5.606284 -3.207816,0 z m -29.212496,-5.276592 c -3.00684,0 -6.14584,-1.035327 -7.914064,-3.384401 l 0,3.054709 -2.918752,0 0,-19.200119 3.209376,0 0,11.579762 c 0.688648,2.578505 3.530888,5.043781 6.345312,5.043781 3.465176,0 3.742432,-3.507122 3.756248,-5.890667 l 0,-10.732876 3.209376,0 0,11.468821 c -0.01568,3.937894 -0.888736,8.06099 -5.687496,8.06099 z m 17.248432,0 c -5.552608,0 -9.735936,-4.337197 -9.735936,-9.939122 0,-5.362383 3.906128,-9.957881 9.7,-9.957881 3.255784,0 6.173656,1.485559 7.770312,3.860964 l -2.225,1.770321 c -0.647888,-1.868442 -3.270776,-3.20158 -5.435936,-3.20158 -3.515472,0 -6.1478,2.788807 -6.418752,6.337539 l 15.792192,0 c 0.0712,0.423373 0.07184,0.976856 0.07184,1.337508 0,5.419764 -4.007728,9.792251 -9.518752,9.792251 z m 41.764062,0 c -5.55261,0 -9.73593,-4.337197 -9.73593,-9.939122 0,-5.362383 3.90612,-9.957881 9.7,-9.957881 3.25577,0 6.17364,1.485559 7.77031,3.860964 l -2.225,1.770321 c -0.64789,-1.868442 -3.27078,-3.20158 -5.43594,-3.20158 -3.51547,0 -6.1478,2.788807 -6.41875,6.337539 l 15.79218,0 c 0.0712,0.423373 0.0719,0.976856 0.0719,1.337508 0,5.419764 -4.00772,9.792251 -9.51875,9.792251 z m 18.02656,0 c -4.46598,0 -7.29218,-2.406265 -7.29218,-5.962537 0,-2.746147 1.74244,-3.577602 3.57344,-4.196906 1.85956,-0.600264 3.51602,-0.967916 5.325,-1.471879 1.63141,-0.516293 2.99062,-1.084287 2.99062,-2.725017 0,-2.513455 -2.58412,-3.148459 -4.52344,-3.148459 -2.95211,0.0443 -5.00917,1.145807 -6.89218,2.578146 l -1.38595,-2.170334 c 2.13959,-1.813551 5.21671,-2.781277 8.35157,-2.800017 4.31751,0 7.55,2.001582 7.55,5.834416 0,2.924088 -2.12549,3.859754 -4.02657,4.576588 -1.44329,0.544223 -3.52549,0.884126 -5.51093,1.500009 -1.38936,0.430983 -2.42656,0.947126 -2.42656,2.464076 0,2.763357 2.78613,3.168769 4.19531,3.168769 2.26326,0 4.24298,-0.804195 5.7625,-2.135943 l 1.45937,1.950012 c -1.74701,1.436049 -3.93269,2.539076 -7.15,2.539076 z m 18.32188,0 c -5.55261,0 -9.73593,-4.337197 -9.73593,-9.939122 0,-5.362383 3.90612,-9.957881 9.7,-9.957881 3.25577,0 6.17364,1.485559 7.77031,3.860964 l -2.225,1.770321 c -0.6479,-1.868442 -3.27079,-3.20158 -5.43595,-3.20158 -3.51546,0 -6.1478,2.788807 -6.41874,6.337539 l 15.79218,0 c 0.0712,0.423373 0.0718,0.976856 0.0718,1.337508 0,5.419764 -4.00772,9.792251 -9.51874,9.792251 z m 18.69219,0 c -2.95128,0 -5.37716,-1.102197 -7.47656,-2.501576 l 1.0578,-2.157833 c 2.11488,1.537519 4.15728,2.306264 6.05313,2.306264 3.24435,0 5.03438,-2.010822 5.03438,-5.045341 l 0,-1.106257 c -0.95756,0.277972 -2.23079,0.779695 -5.325,0.779695 -4.2624,0 -7.69942,-2.478305 -7.72969,-6.300039 0,-3.512111 2.9327,-5.871916 6.325,-5.871916 2.97542,0 5.8177,1.393699 7.16562,3.128149 l 0.0937,-1.162507 c 0.1488,-1.479699 1.80508,-1.745321 2.3875,-1.745321 0.56824,0 1.3125,0.146871 1.3125,0.146871 l 0,2.798458 c -0.68012,0.0259 -1.02186,0.416152 -1.02188,1.178127 l 0,7.825048 c 0,5.637705 -3.78869,7.728178 -7.87656,7.728178 z m 31.07188,0 c -5.52716,0 -9.66407,-4.211166 -9.66407,-9.901621 0,-5.726006 4.252,-9.995382 9.70156,-9.995382 3.16699,0 6.07882,1.486509 7.47656,3.603152 l -2.55,2.028133 c -0.68266,-1.60151 -2.887,-2.831268 -5,-2.831268 -3.69372,0 -6.34531,3.425561 -6.34531,7.195365 0,3.872343 2.62071,7.106293 6.30782,7.106293 2.2314,0 4.00515,-1.136217 4.95937,-2.870337 l 2.5375,2.018762 c -1.49883,2.143683 -3.87383,3.646903 -7.42343,3.646903 z M 17.57031,38.546991 c -2.35323,0 -4.790566,-1.367298 -6.01875,-3.201589 l 0,3.054709 -2.989064,0 0,-19.200119 3.209376,0 0,11.836013 c 0.872096,2.552816 3.682104,4.512528 6.856258,4.512528 l 0,2.962518 c 0,0 -0.69502,0.0359 -1.05782,0.0359 z m 85.95469,0 c -2.35323,0 -4.79057,-1.367298 -6.01875,-3.201589 l 0,3.054709 -2.98907,0 0,-19.200119 3.20938,0 0,11.836013 c 0.8721,2.552816 3.6821,4.512528 6.85626,4.512528 l 0,2.962518 c 0,0 -0.69502,0.0359 -1.05782,0.0359 z M -13.518752,36.301658 c 3.563768,0 6.188336,-2.825168 6.492192,-6.301599 l -12.910944,0 c 0.322592,3.486061 2.798192,6.276668 6.418752,6.301599 z m 41.764062,0 c 3.56377,0 6.18834,-2.825168 6.49219,-6.301599 l -12.91094,0 c 0.32259,3.486061 2.79819,6.276668 6.41875,6.301599 z m 36.34844,0 c 3.56377,0 6.18834,-2.825168 6.49219,-6.301599 l -12.91094,0 c 0.32259,3.486061 2.79819,6.276668 6.41875,6.301599 z m 18.54531,-7.510977 c 2.10018,0 3.30919,-0.416272 4.81563,-1.003136 l 0,-1.979702 c 0,-1.303848 -1.82535,-4.545338 -5.98125,-4.545338 -2.79014,0.0419 -4.30469,1.793301 -4.30469,3.735963 0,2.857388 2.90551,3.792213 5.47031,3.792213 z"
         id="path3375-3-3" /></g><g
       inkscape:groupmode="layer"
       id="layer2"
       inkscape:label="Measures"
       style="display:inline;opacity:0.5"><path
         style="color:#000000;font-style:normal;font-variant:normal;font-weight:normal;font-stretch:normal;font-size:medium;line-height:normal;font-family:sans-serif;text-indent:0;text-align:start;text-decoration:none;text-decoration-line:none;text-decoration-style:solid;text-decoration-color:#000000;letter-spacing:normal;word-spacing:normal;text-transform:none;direction:ltr;block-progression:tb;writing-mode:lr-tb;baseline-shift:baseline;text-anchor:start;white-space:normal;clip-rule:nonzero;display:inline;overflow:visible;visibility:visible;opacity:1;isolation:auto;mix-blend-mode:normal;color-interpolation:sRGB;color-interpolation-filters:linearRGB;solid-color:#000000;solid-opacity:1;fill:#000000;fill-opacity:1;fill-rule:evenodd;stroke:none;stroke-width:2.68111372;stroke-linecap:butt;stroke-linejoin:miter;stroke-miterlimit:4;stroke-dasharray:none;stroke-dashoffset:0;stroke-opacity:1;color-rendering:auto;image-rendering:auto;shape-rendering:auto;text-rendering:auto;enable-background:accumulate"
         d="m -7.0328895,109.2 37.4685065,0 0,-0.4 -37.4685065,0 0,0.4 z"
         id="path3465-7"
         inkscape:connector-curvature="0" /><path
         style="color:#000000;font-style:normal;font-variant:normal;font-weight:normal;font-stretch:normal;font-size:medium;line-height:normal;font-family:sans-serif;text-indent:0;text-align:start;text-decoration:none;text-decoration-line:none;text-decoration-style:solid;text-decoration-color:#000000;letter-spacing:normal;word-spacing:normal;text-transform:none;direction:ltr;block-progression:tb;writing-mode:lr-tb;baseline-shift:baseline;text-anchor:start;white-space:normal;clip-rule:nonzero;display:inline;overflow:visible;visibility:visible;opacity:1;isolation:auto;mix-blend-mode:normal;color-interpolation:sRGB;color-interpolation-filters:linearRGB;solid-color:#000000;solid-opacity:1;fill:#000000;fill-opacity:1;fill-rule:evenodd;stroke:none;stroke-width:2.68111372;stroke-linecap:butt;stroke-linejoin:miter;stroke-miterlimit:4;stroke-dasharray:none;stroke-dashoffset:0;stroke-opacity:1;color-rendering:auto;image-rendering:auto;shape-rendering:auto;text-rendering:auto;enable-background:accumulate"
         d="m -7.0328895,61.2 37.4685065,0 0,-0.4 -37.4685065,0 0,0.4 z"
         id="path3465-7-5"
         inkscape:connector-curvature="0" /><g
         style="display:inline"
         id="g4357"
         transform="matrix(0.1,0,0,0.1,1.6,90.14056)"><path
           sodipodi:nodetypes="cc"
           inkscape:connector-curvature="0"
           id="path4320"
           d="m 363,216.48528 235.5,0"
           style="fill:none;fill-rule:evenodd;stroke:#000000;stroke-width:4.00851965;stroke-linecap:butt;stroke-linejoin:miter;stroke-miterlimit:4;stroke-dasharray:none;stroke-opacity:1" /><path
           sodipodi:nodetypes="ccc"
           inkscape:connector-curvature="0"
           id="path4322"
           d="m 374.5,228.48528 -12,-12 12,-12"
           style="fill:none;fill-rule:evenodd;stroke:#000000;stroke-width:4;stroke-linecap:butt;stroke-linejoin:miter;stroke-miterlimit:4;stroke-dasharray:none;stroke-opacity:1" /><path
           sodipodi:nodetypes="ccc"
           inkscape:connector-curvature="0"
           id="path4322-6"
           d="m 585.58579,228.48528 12,-12 -12,-12"
           style="fill:none;fill-rule:evenodd;stroke:#000000;stroke-width:4;stroke-linecap:butt;stroke-linejoin:miter;stroke-miterlimit:4;stroke-dasharray:none;stroke-opacity:1" /><text
           transform="scale(1,-1)"
           sodipodi:linespacing="125%"
           id="text4345"
           y="-168.20813"
           x="439.8204"
           style="font-style:normal;font-variant:normal;font-weight:normal;font-stretch:normal;font-size:40px;line-height:125%;font-family:'DejaVu Sans';-inkscape-font-specification:'DejaVu Sans';letter-spacing:0px;word-spacing:0px;fill:#000000;fill-opacity:1;stroke:none;stroke-width:1px;stroke-linecap:butt;stroke-linejoin:miter;stroke-opacity:1"
           xml:space="preserve"><tspan
             y="-168.20813"
             x="439.8204"
             id="tspan4347"
             sodipodi:role="line">2.5a</tspan></text>
</g><path
         style="color:#000000;font-style:normal;font-variant:normal;font-weight:normal;font-stretch:normal;font-size:medium;line-height:normal;font-family:sans-serif;text-indent:0;text-align:start;text-decoration:none;text-decoration-line:none;text-decoration-style:solid;text-decoration-color:#000000;letter-spacing:normal;word-spacing:normal;text-transform:none;direction:ltr;block-progression:tb;writing-mode:lr-tb;baseline-shift:baseline;text-anchor:start;white-space:normal;clip-rule:nonzero;display:inline;overflow:visible;visibility:visible;opacity:1;isolation:auto;mix-blend-mode:normal;color-interpolation:sRGB;color-interpolation-filters:linearRGB;solid-color:#000000;solid-opacity:1;fill:#000000;fill-opacity:1;fill-rule:evenodd;stroke:none;stroke-width:0.39809269;stroke-linecap:butt;stroke-linejoin:miter;stroke-miterlimit:4;stroke-dasharray:none;stroke-dashoffset:0;stroke-opacity:1;color-rendering:auto;image-rendering:auto;shape-rendering:auto;text-rendering:auto;enable-background:accumulate"
         d="m -3.6414515,107.53946 -1.342184,1.34218 -1.342192,-1.34218 0.282816,-0.28282 0.859376,0.85938 0,-46.175004 -0.859376,0.859376 -0.282816,-0.281248 1.342192,-1.342192 1.342184,1.342192 -0.284376,0.281248 -0.859376,-0.860936 0,46.178124 0.859376,-0.86094 0.284376,0.28282 z"
         id="path4320-0"
         inkscape:connector-curvature="0" /><text
         xml:space="preserve"
         style="font-style:normal;font-variant:normal;font-weight:normal;font-stretch:normal;font-size:4px;line-height:125%;font-family:'DejaVu Sans';-inkscape-font-specification:'DejaVu Sans';text-align:center;letter-spacing:0px;word-spacing:0px;text-anchor:middle;fill:#000000;fill-opacity:1;stroke:none;stroke-width:1px;stroke-linecap:butt;stroke-linejoin:miter;stroke-opacity:1"
         x="-0.4497343"
         y="-83.802299"
         id="text4345-9"
         sodipodi:linespacing="125%"
         transform="scale(1,-1)"><tspan
           sodipodi:role="line"
           id="tspan4347-6"
           x="-0.4497343"
           y="-83.802299">5a</tspan></text>
<path
         sodipodi:nodetypes="ccccccccccccccc"
         inkscape:connector-curvature="0"
         id="path4320-0-0"
         d="m 97.351489,113.85878 -1.342184,1.34219 -1.342192,-1.34219 0.284376,-0.28281 0.859376,0.86093 0,-59.243545 -0.859376,0.860938 -0.284376,-0.282813 1.342192,-1.342187 1.342184,1.342187 -0.284376,0.282813 -0.859376,-0.860938 0,59.243545 0.859376,-0.86093 z"
         style="color:#000000;font-style:normal;font-variant:normal;font-weight:normal;font-stretch:normal;font-size:medium;line-height:normal;font-family:sans-serif;text-indent:0;text-align:start;text-decoration:none;text-decoration-line:none;text-decoration-style:solid;text-decoration-color:#000000;letter-spacing:normal;word-spacing:normal;text-transform:none;direction:ltr;block-progression:tb;writing-mode:lr-tb;baseline-shift:baseline;text-anchor:start;white-space:normal;clip-rule:nonzero;display:inline;overflow:visible;visibility:visible;opacity:1;isolation:auto;mix-blend-mode:normal;color-interpolation:sRGB;color-interpolation-filters:linearRGB;solid-color:#000000;solid-opacity:1;fill:#000000;fill-opacity:1;fill-rule:evenodd;stroke:none;stroke-width:3.98092699;stroke-linecap:butt;stroke-linejoin:miter;stroke-miterlimit:4;stroke-dasharray:none;stroke-dashoffset:0;stroke-opacity:1;color-rendering:auto;image-rendering:auto;shape-rendering:auto;text-rendering:auto;enable-background:accumulate" /><text
         xml:space="preserve"
         style="font-style:normal;font-variant:normal;font-weight:normal;font-stretch:normal;font-size:4px;line-height:125%;font-family:'DejaVu Sans';-inkscape-font-specification:'DejaVu Sans';text-align:center;letter-spacing:0px;word-spacing:0px;text-anchor:middle;fill:#000000;fill-opacity:1;stroke:none;stroke-width:1px;stroke-linecap:butt;stroke-linejoin:miter;stroke-opacity:1"
         x="107.52975"
         y="-86.563881"
         id="text4345-9-0"
         sodipodi:linespacing="125%"
         transform="scale(1,-1)"><tspan
           sodipodi:role="line"
           id="tspan4347-6-1"
           x="107.52975"
           y="-86.563881">b=19/3*a</tspan></text>
<path
         style="color:#000000;font-style:normal;font-variant:normal;font-weight:normal;font-stretch:normal;font-size:medium;line-height:normal;font-family:sans-serif;text-indent:0;text-align:start;text-decoration:none;text-decoration-line:none;text-decoration-style:solid;text-decoration-color:#000000;letter-spacing:normal;word-spacing:normal;text-transform:none;direction:ltr;block-progression:tb;writing-mode:lr-tb;baseline-shift:baseline;text-anchor:start;white-space:normal;clip-rule:nonzero;display:inline;overflow:visible;visibility:visible;opacity:1;isolation:auto;mix-blend-mode:normal;color-interpolation:sRGB;color-interpolation-filters:linearRGB;solid-color:#000000;solid-opacity:1;fill:#000000;fill-opacity:1;fill-rule:evenodd;stroke:none;stroke-width:2.18314934;stroke-linecap:butt;stroke-linejoin:miter;stroke-miterlimit:4;stroke-dasharray:none;stroke-dashoffset:0;stroke-opacity:1;color-rendering:auto;image-rendering:auto;shape-rendering:auto;text-rendering:auto;enable-background:accumulate"
         d="m 34.662496,63.672185 0,4.289453 0.4,0 0,-4.289453 -0.4,0 z"
         id="path3465-6"
         inkscape:connector-curvature="0" /><path
         style="color:#000000;font-style:normal;font-variant:normal;font-weight:normal;font-stretch:normal;font-size:medium;line-height:normal;font-family:sans-serif;text-indent:0;text-align:start;text-decoration:none;text-decoration-line:none;text-decoration-style:solid;text-decoration-color:#000000;letter-spacing:normal;word-spacing:normal;text-transform:none;direction:ltr;block-progression:tb;writing-mode:lr-tb;baseline-shift:baseline;text-anchor:start;white-space:normal;clip-rule:nonzero;display:inline;overflow:visible;visibility:visible;opacity:1;isolation:auto;mix-blend-mode:normal;color-interpolation:sRGB;color-interpolation-filters:linearRGB;solid-color:#000000;solid-opacity:1;fill:#000000;fill-opacity:1;fill-rule:evenodd;stroke:none;stroke-width:2.18314934;stroke-linecap:butt;stroke-linejoin:miter;stroke-miterlimit:4;stroke-dasharray:none;stroke-dashoffset:0;stroke-opacity:1;color-rendering:auto;image-rendering:auto;shape-rendering:auto;text-rendering:auto;enable-background:accumulate"
         d="m 63.90566,63.672185 0,4.290039 0.4,0 0,-4.290039 -0.4,0 z"
         id="path3465-7-5-3-0"
         inkscape:connector-curvature="0" /><g
         style="display:inline"
         transform="matrix(0.1,0,0,0.1,1.3912075,44.193273)"
         id="g4357-6-9-2"><path
           style="color:#000000;font-style:normal;font-variant:normal;font-weight:normal;font-stretch:normal;font-size:medium;line-height:normal;font-family:sans-serif;text-indent:0;text-align:start;text-decoration:none;text-decoration-line:none;text-decoration-style:solid;text-decoration-color:#000000;letter-spacing:normal;word-spacing:normal;text-transform:none;direction:ltr;block-progression:tb;writing-mode:lr-tb;baseline-shift:baseline;text-anchor:start;white-space:normal;clip-rule:nonzero;display:inline;overflow:visible;visibility:visible;opacity:1;isolation:auto;mix-blend-mode:normal;color-interpolation:sRGB;color-interpolation-filters:linearRGB;solid-color:#000000;solid-opacity:1;fill:#000000;fill-opacity:1;fill-rule:evenodd;stroke:none;stroke-width:3.98092699;stroke-linecap:butt;stroke-linejoin:miter;stroke-miterlimit:4;stroke-dasharray:none;stroke-dashoffset:0;stroke-opacity:1;color-rendering:auto;image-rendering:auto;shape-rendering:auto;text-rendering:auto;enable-background:accumulate"
           d="m 43.531902,109.88672 -1.677734,1.67773 1.677734,1.67774 0.353516,-0.35547 -1.076172,-1.07422 34.340074,0 -1.076172,1.07422 0.353516,0.35547 1.677734,-1.67774 -1.677734,-1.67773 -0.353516,0.35547 1.076172,1.07422 -34.340074,0 1.076172,-1.07422 z"
           transform="matrix(8,0,0,-8,-7.1247462e-6,1109)"
           id="path4320-0-0-8"
           inkscape:connector-curvature="0"
           sodipodi:nodetypes="ccccccccccccccc" /><text
           transform="scale(1,-1)"
           sodipodi:linespacing="125%"
           id="text4345-9-0-8"
           y="-168.20813"
           x="482.95126"
           style="font-style:normal;font-variant:normal;font-weight:normal;font-stretch:normal;font-size:40px;line-height:125%;font-family:'DejaVu Sans';-inkscape-font-specification:'DejaVu Sans';text-align:center;letter-spacing:0px;word-spacing:0px;text-anchor:middle;fill:#000000;fill-opacity:1;stroke:none;stroke-width:1px;stroke-linecap:butt;stroke-linejoin:miter;stroke-opacity:1"
           xml:space="preserve"><tspan
             y="-168.20813"
             x="482.95126"
             id="tspan4347-6-1-4"
             sodipodi:role="line">3a</tspan></text>
</g><path
         style="color:#000000;font-style:normal;font-variant:normal;font-weight:normal;font-stretch:normal;font-size:medium;line-height:normal;font-family:sans-serif;text-indent:0;text-align:start;text-decoration:none;text-decoration-line:none;text-decoration-style:solid;text-decoration-color:#000000;letter-spacing:normal;word-spacing:normal;text-transform:none;direction:ltr;block-progression:tb;writing-mode:lr-tb;baseline-shift:baseline;text-anchor:start;white-space:normal;clip-rule:nonzero;display:inline;overflow:visible;visibility:visible;opacity:1;isolation:auto;mix-blend-mode:normal;color-interpolation:sRGB;color-interpolation-filters:linearRGB;solid-color:#000000;solid-opacity:1;fill:#000000;fill-opacity:1;fill-rule:evenodd;stroke:none;stroke-width:2.18314934;stroke-linecap:butt;stroke-linejoin:miter;stroke-miterlimit:4;stroke-dasharray:none;stroke-dashoffset:0;stroke-opacity:1;color-rendering:auto;image-rendering:auto;shape-rendering:auto;text-rendering:auto;enable-background:accumulate"
         d="m 35.08884,101.67796 -32.0922195,0 0,0.4 32.0922195,0 0,-0.4 z"
         id="path3465-6-9"
         inkscape:connector-curvature="0" /><path
         style="color:#000000;font-style:normal;font-variant:normal;font-weight:normal;font-stretch:normal;font-size:medium;line-height:normal;font-family:sans-serif;text-indent:0;text-align:start;text-decoration:none;text-decoration-line:none;text-decoration-style:solid;text-decoration-color:#000000;letter-spacing:normal;word-spacing:normal;text-transform:none;direction:ltr;block-progression:tb;writing-mode:lr-tb;baseline-shift:baseline;text-anchor:start;white-space:normal;clip-rule:nonzero;display:inline;overflow:visible;visibility:visible;opacity:1;isolation:auto;mix-blend-mode:normal;color-interpolation:sRGB;color-interpolation-filters:linearRGB;solid-color:#000000;solid-opacity:1;fill:#000000;fill-opacity:1;fill-rule:evenodd;stroke:none;stroke-width:2.18314934;stroke-linecap:butt;stroke-linejoin:miter;stroke-miterlimit:4;stroke-dasharray:none;stroke-dashoffset:0;stroke-opacity:1;color-rendering:auto;image-rendering:auto;shape-rendering:auto;text-rendering:auto;enable-background:accumulate"
         d="m 35.093224,67.670156 -32.0966035,0 0,0.4 32.0966035,0 0,-0.4 z"
         id="path3465-7-5-3-0-8"
         inkscape:connector-curvature="0" /><path
         sodipodi:nodetypes="ccccccccccccccc"
         inkscape:connector-curvature="0"
         id="path4320-0-0-8-4"
         d="m 6.5886934,100.33272 -1.3421839,1.34219 -1.342192,-1.34219 0.284376,-0.28281 0.859376,0.86093 0,-32.130636 -0.859376,0.860938 -0.284376,-0.282813 1.342192,-1.342187 1.3421839,1.342187 -0.284376,0.282813 -0.8593759,-0.860938 0,32.130636 0.8593759,-0.86093 z"
         style="color:#000000;font-style:normal;font-variant:normal;font-weight:normal;font-stretch:normal;font-size:medium;line-height:normal;font-family:sans-serif;text-indent:0;text-align:start;text-decoration:none;text-decoration-line:none;text-decoration-style:solid;text-decoration-color:#000000;letter-spacing:normal;word-spacing:normal;text-transform:none;direction:ltr;block-progression:tb;writing-mode:lr-tb;baseline-shift:baseline;text-anchor:start;white-space:normal;clip-rule:nonzero;display:inline;overflow:visible;visibility:visible;opacity:1;isolation:auto;mix-blend-mode:normal;color-interpolation:sRGB;color-interpolation-filters:linearRGB;solid-color:#000000;solid-opacity:1;fill:#000000;fill-opacity:1;fill-rule:evenodd;stroke:none;stroke-width:3.98092699;stroke-linecap:butt;stroke-linejoin:miter;stroke-miterlimit:4;stroke-dasharray:none;stroke-dashoffset:0;stroke-opacity:1;color-rendering:auto;image-rendering:auto;shape-rendering:auto;text-rendering:auto;enable-background:accumulate" /><text
         xml:space="preserve"
         style="font-style:normal;font-variant:normal;font-weight:normal;font-stretch:normal;font-size:4px;line-height:125%;font-family:'DejaVu Sans';-inkscape-font-specification:'DejaVu Sans';text-align:center;letter-spacing:0px;word-spacing:0px;text-anchor:middle;display:inline;fill:#000000;fill-opacity:1;stroke:none;stroke-width:1px;stroke-linecap:butt;stroke-linejoin:miter;stroke-opacity:1"
         x="10.641053"
         y="-83.584579"
         id="text4345-9-0-8-4"
         sodipodi:linespacing="125%"
         transform="scale(1,-1)"><tspan
           sodipodi:role="line"
           id="tspan4347-6-1-4-9"
           x="10.641053"
           y="-83.584579">3.5a</tspan></text>
<path
         style="color:#000000;font-style:normal;font-variant:normal;font-weight:normal;font-stretch:normal;font-size:medium;line-height:normal;font-family:sans-serif;text-indent:0;text-align:start;text-decoration:none;text-decoration-line:none;text-decoration-style:solid;text-decoration-color:#000000;letter-spacing:normal;word-spacing:normal;text-transform:none;direction:ltr;block-progression:tb;writing-mode:lr-tb;baseline-shift:baseline;text-anchor:start;white-space:normal;clip-rule:nonzero;display:inline;overflow:visible;visibility:visible;opacity:1;isolation:auto;mix-blend-mode:normal;color-interpolation:sRGB;color-interpolation-filters:linearRGB;solid-color:#000000;solid-opacity:1;fill:#000000;fill-opacity:1;fill-rule:evenodd;stroke:none;stroke-width:4.6367116;stroke-linecap:butt;stroke-linejoin:miter;stroke-miterlimit:4;stroke-dasharray:none;stroke-dashoffset:0;stroke-opacity:1;color-rendering:auto;image-rendering:auto;shape-rendering:auto;text-rendering:auto;enable-background:accumulate"
         d="m -41.88,11.547566 0,7.682527 0.4,0 0,-7.682527 -0.4,0 z"
         id="path3465-7-5-3-2"
         inkscape:connector-curvature="0" /><g
         style="display:inline"
         transform="matrix(0.1,0,0,0.1,112.96941,-8.2339564)"
         id="g4357-6-9-4-6"><path
           style="color:#000000;font-style:normal;font-variant:normal;font-weight:normal;font-stretch:normal;font-size:medium;line-height:normal;font-family:sans-serif;text-indent:0;text-align:start;text-decoration:none;text-decoration-line:none;text-decoration-style:solid;text-decoration-color:#000000;letter-spacing:normal;word-spacing:normal;text-transform:none;direction:ltr;block-progression:tb;writing-mode:lr-tb;baseline-shift:baseline;text-anchor:start;white-space:normal;clip-rule:nonzero;display:inline;overflow:visible;visibility:visible;opacity:1;isolation:auto;mix-blend-mode:normal;color-interpolation:sRGB;color-interpolation-filters:linearRGB;solid-color:#000000;solid-opacity:1;fill:#000000;fill-opacity:1;fill-rule:evenodd;stroke:none;stroke-width:3.98092699;stroke-linecap:butt;stroke-linejoin:miter;stroke-miterlimit:4;stroke-dasharray:none;stroke-dashoffset:0;stroke-opacity:1;color-rendering:auto;image-rendering:auto;shape-rendering:auto;text-rendering:auto;enable-background:accumulate"
           d="m -191.22072,109.88672 -1.67774,1.67773 1.67774,1.67774 0.35351,-0.35547 -1.07617,-1.07422 225.78084,0 -1.076172,1.07422 0.353516,0.35547 1.677734,-1.67774 -1.677734,-1.67773 -0.353516,0.35547 1.076172,1.07422 -225.78084,0 1.07617,-1.07422 z"
           transform="matrix(8,0,0,-8,-7.1247462e-6,1109)"
           id="path4320-0-0-2-8"
           inkscape:connector-curvature="0"
           sodipodi:nodetypes="ccccccccccccccc" /><text
           transform="scale(1,-1)"
           sodipodi:linespacing="125%"
           id="text4345-9-0-5-1"
           y="-168.20813"
           x="-618.04871"
           style="font-style:normal;font-variant:normal;font-weight:normal;font-stretch:normal;font-size:40px;line-height:125%;font-family:'DejaVu Sans';-inkscape-font-specification:'DejaVu Sans';text-align:center;letter-spacing:0px;word-spacing:0px;text-anchor:middle;fill:#000000;fill-opacity:1;stroke:none;stroke-width:1px;stroke-linecap:butt;stroke-linejoin:miter;stroke-opacity:1"
           xml:space="preserve"><tspan
             y="-168.20813"
             x="-618.04871"
             id="tspan4347-6-1-5-2"
             sodipodi:role="line">3b=19a</tspan></text>
</g><path
         style="color:#000000;font-style:normal;font-variant:normal;font-weight:normal;font-stretch:normal;font-size:medium;line-height:normal;font-family:sans-serif;text-indent:0;text-align:start;text-decoration:none;text-decoration-line:none;text-decoration-style:solid;text-decoration-color:#000000;letter-spacing:normal;word-spacing:normal;text-transform:none;direction:ltr;block-progression:tb;writing-mode:lr-tb;baseline-shift:baseline;text-anchor:start;white-space:normal;clip-rule:nonzero;display:inline;overflow:visible;visibility:visible;opacity:1;isolation:auto;mix-blend-mode:normal;color-interpolation:sRGB;color-interpolation-filters:linearRGB;solid-color:#000000;solid-opacity:1;fill:#000000;fill-opacity:1;fill-rule:evenodd;stroke:none;stroke-width:2.18314934;stroke-linecap:butt;stroke-linejoin:miter;stroke-miterlimit:4;stroke-dasharray:none;stroke-dashoffset:0;stroke-opacity:1;color-rendering:auto;image-rendering:auto;shape-rendering:auto;text-rendering:auto;enable-background:accumulate"
         d="m 94.48357,38.4002 54.1837,0 0,0.4 -54.1837,0 0,-0.4 z"
         id="path3465-6-9-0"
         inkscape:connector-curvature="0" /><path
         style="color:#000000;font-style:normal;font-variant:normal;font-weight:normal;font-stretch:normal;font-size:medium;line-height:normal;font-family:sans-serif;text-indent:0;text-align:start;text-decoration:none;text-decoration-line:none;text-decoration-style:solid;text-decoration-color:#000000;letter-spacing:normal;word-spacing:normal;text-transform:none;direction:ltr;block-progression:tb;writing-mode:lr-tb;baseline-shift:baseline;text-anchor:start;white-space:normal;clip-rule:nonzero;display:inline;overflow:visible;visibility:visible;opacity:1;isolation:auto;mix-blend-mode:normal;color-interpolation:sRGB;color-interpolation-filters:linearRGB;solid-color:#000000;solid-opacity:1;fill:#000000;fill-opacity:1;fill-rule:evenodd;stroke:none;stroke-width:2.18314934;stroke-linecap:butt;stroke-linejoin:miter;stroke-miterlimit:4;stroke-dasharray:none;stroke-dashoffset:0;stroke-opacity:1;color-rendering:auto;image-rendering:auto;shape-rendering:auto;text-rendering:auto;enable-background:accumulate"
         d="m 137.59463,18.766649 11.07266,0 0,0.4 -11.07266,0 0,-0.4 z"
         id="path3465-7-5-3-0-8-3"
         inkscape:connector-curvature="0" /><path
         sodipodi:nodetypes="ccccccccccccccc"
         inkscape:connector-curvature="0"
         id="path4320-0-0-8-4-2"
         d="m 147.94505,37.098826 -1.34219,1.342187 -1.3422,-1.342187 0.28439,-0.282813 0.85937,0.860937 0,-17.630117 -0.85937,0.860938 -0.28439,-0.282813 1.3422,-1.342187 1.34219,1.342187 -0.28439,0.282813 -0.85936,-0.860938 0,17.630117 0.85936,-0.860937 z"
         style="color:#000000;font-style:normal;font-variant:normal;font-weight:normal;font-stretch:normal;font-size:medium;line-height:normal;font-family:sans-serif;text-indent:0;text-align:start;text-decoration:none;text-decoration-line:none;text-decoration-style:solid;text-decoration-color:#000000;letter-spacing:normal;word-spacing:normal;text-transform:none;direction:ltr;block-progression:tb;writing-mode:lr-tb;baseline-shift:baseline;text-anchor:start;white-space:normal;clip-rule:nonzero;display:inline;overflow:visible;visibility:visible;opacity:1;isolation:auto;mix-blend-mode:normal;color-interpolation:sRGB;color-interpolation-filters:linearRGB;solid-color:#000000;solid-opacity:1;fill:#000000;fill-opacity:1;fill-rule:evenodd;stroke:none;stroke-width:3.98092699;stroke-linecap:butt;stroke-linejoin:miter;stroke-miterlimit:4;stroke-dasharray:none;stroke-dashoffset:0;stroke-opacity:1;color-rendering:auto;image-rendering:auto;shape-rendering:auto;text-rendering:auto;enable-background:accumulate" /><text
         xml:space="preserve"
         style="font-style:normal;font-variant:normal;font-weight:normal;font-stretch:normal;font-size:4px;line-height:125%;font-family:'DejaVu Sans';-inkscape-font-specification:'DejaVu Sans';text-align:center;letter-spacing:0px;word-spacing:0px;text-anchor:middle;display:inline;fill:#000000;fill-opacity:1;stroke:none;stroke-width:1px;stroke-linecap:butt;stroke-linejoin:miter;stroke-opacity:1"
         x="154.20251"
         y="-25.94203"
         id="text4345-9-0-8-4-8"
         sodipodi:linespacing="125%"
         transform="scale(1,-1)"><tspan
           sodipodi:role="line"
           id="tspan4347-6-1-4-9-7"
           x="154.20251"
           y="-25.94203">2a</tspan></text>
<path
         style="color:#000000;font-style:normal;font-variant:normal;font-weight:normal;font-stretch:normal;font-size:medium;line-height:normal;font-family:sans-serif;text-indent:0;text-align:start;text-decoration:none;text-decoration-line:none;text-decoration-style:solid;text-decoration-color:#000000;letter-spacing:normal;word-spacing:normal;text-transform:none;direction:ltr;block-progression:tb;writing-mode:lr-tb;baseline-shift:baseline;text-anchor:start;white-space:normal;clip-rule:nonzero;display:inline;overflow:visible;visibility:visible;opacity:1;isolation:auto;mix-blend-mode:normal;color-interpolation:sRGB;color-interpolation-filters:linearRGB;solid-color:#000000;solid-opacity:1;fill:#000000;fill-opacity:1;fill-rule:evenodd;stroke:none;stroke-width:4.6367116;stroke-linecap:butt;stroke-linejoin:miter;stroke-miterlimit:4;stroke-dasharray:none;stroke-dashoffset:0;stroke-opacity:1;color-rendering:auto;image-rendering:auto;shape-rendering:auto;text-rendering:auto;enable-background:accumulate"
         d="m 140.83318,11.547566 0,7.682527 0.4,0 0,-7.682527 -0.4,0 z"
         id="path3465-7-5-3-2-9"
         inkscape:connector-curvature="0" /><path
         style="color:#000000;font-style:normal;font-variant:normal;font-weight:normal;font-stretch:normal;font-size:medium;line-height:normal;font-family:sans-serif;text-indent:0;text-align:start;text-decoration:none;text-decoration-line:none;text-decoration-style:solid;text-decoration-color:#000000;letter-spacing:normal;word-spacing:normal;text-transform:none;direction:ltr;block-progression:tb;writing-mode:lr-tb;baseline-shift:baseline;text-anchor:start;white-space:normal;clip-rule:nonzero;display:inline;overflow:visible;visibility:visible;opacity:1;isolation:auto;mix-blend-mode:normal;color-interpolation:sRGB;color-interpolation-filters:linearRGB;solid-color:#000000;solid-opacity:1;fill:#000000;fill-opacity:1;fill-rule:evenodd;stroke:none;stroke-width:2.18314934;stroke-linecap:butt;stroke-linejoin:miter;stroke-miterlimit:4;stroke-dasharray:none;stroke-dashoffset:0;stroke-opacity:1;color-rendering:auto;image-rendering:auto;shape-rendering:auto;text-rendering:auto;enable-background:accumulate"
         d="m 61.642318,54 36.909952,0 0,0.4 -36.909952,0 0,-0.4 z"
         id="path3465-6-9-0-3"
         inkscape:connector-curvature="0" /><path
         sodipodi:nodetypes="ccccccccccccccc"
         inkscape:connector-curvature="0"
         id="path4320-0-0-8-4-2-6"
         d="m 97.40315,52.655916 -1.342138,1.34218 -1.342148,-1.34218 0.284378,-0.28282 0.859338,0.86094 0,-13.691926 -0.859338,0.86094 -0.284378,-0.28281 1.342148,-1.34219 1.342138,1.34219 -0.284378,0.28281 -0.859328,-0.86094 0,13.691926 0.859328,-0.86094 z"
         style="color:#000000;font-style:normal;font-variant:normal;font-weight:normal;font-stretch:normal;font-size:medium;line-height:normal;font-family:sans-serif;text-indent:0;text-align:start;text-decoration:none;text-decoration-line:none;text-decoration-style:solid;text-decoration-color:#000000;letter-spacing:normal;word-spacing:normal;text-transform:none;direction:ltr;block-progression:tb;writing-mode:lr-tb;baseline-shift:baseline;text-anchor:start;white-space:normal;clip-rule:nonzero;display:inline;overflow:visible;visibility:visible;opacity:1;isolation:auto;mix-blend-mode:normal;color-interpolation:sRGB;color-interpolation-filters:linearRGB;solid-color:#000000;solid-opacity:1;fill:#000000;fill-opacity:1;fill-rule:evenodd;stroke:none;stroke-width:3.98092699;stroke-linecap:butt;stroke-linejoin:miter;stroke-miterlimit:4;stroke-dasharray:none;stroke-dashoffset:0;stroke-opacity:1;color-rendering:auto;image-rendering:auto;shape-rendering:auto;text-rendering:auto;enable-background:accumulate" /><text
         xml:space="preserve"
         style="font-style:normal;font-variant:normal;font-weight:normal;font-stretch:normal;font-size:4px;line-height:125%;font-family:'DejaVu Sans';-inkscape-font-specification:'DejaVu Sans';text-align:center;letter-spacing:0px;word-spacing:0px;text-anchor:middle;display:inline;fill:#000000;fill-opacity:1;stroke:none;stroke-width:1px;stroke-linecap:butt;stroke-linejoin:miter;stroke-opacity:1"
         x="104.28704"
         y="-45.437305"
         id="text4345-9-0-8-4-8-7"
         sodipodi:linespacing="125%"
         transform="scale(1,-1)"><tspan
           sodipodi:role="line"
           id="tspan4347-6-1-4-9-7-5"
           x="104.28704"
           y="-45.437305">5/3*a</tspan></text>
<path
         style="color:#000000;font-style:normal;font-variant:normal;font-weight:normal;font-stretch:normal;font-size:medium;line-height:normal;font-family:sans-serif;text-indent:0;text-align:start;text-decoration:none;text-decoration-line:none;text-decoration-style:solid;text-decoration-color:#000000;letter-spacing:normal;word-spacing:normal;text-transform:none;direction:ltr;block-progression:tb;writing-mode:lr-tb;baseline-shift:baseline;text-anchor:start;white-space:normal;clip-rule:nonzero;display:inline;overflow:visible;visibility:visible;opacity:1;isolation:auto;mix-blend-mode:normal;color-interpolation:sRGB;color-interpolation-filters:linearRGB;solid-color:#000000;solid-opacity:1;fill:#000000;fill-opacity:1;fill-rule:evenodd;stroke:none;stroke-width:2.18314934;stroke-linecap:butt;stroke-linejoin:miter;stroke-miterlimit:4;stroke-dasharray:none;stroke-dashoffset:0;stroke-opacity:1;color-rendering:auto;image-rendering:auto;shape-rendering:auto;text-rendering:auto;enable-background:accumulate"
         d="m 61.64232,115.2 36.90995,0 0,0.4 -36.90995,0 0,-0.4 z"
         id="path3465-6-9-0-3-5"
         inkscape:connector-curvature="0" /></g></g></svg>