<?xml version="1.0" encoding="UTF-8" standalone="no"?>
<!-- Created with Inkscape (http://www.inkscape.org/) -->

<svg
   xmlns:dc="http://purl.org/dc/elements/1.1/"
   xmlns:cc="http://creativecommons.org/ns#"
   xmlns:rdf="http://www.w3.org/1999/02/22-rdf-syntax-ns#"
   xmlns:svg="http://www.w3.org/2000/svg"
   xmlns="http://www.w3.org/2000/svg"
   xmlns:sodipodi="http://sodipodi.sourceforge.net/DTD/sodipodi-0.dtd"
   xmlns:inkscape="http://www.inkscape.org/namespaces/inkscape"
   id="svg3355"
   version="1.1"
   inkscape:version="0.91 r13725"
   xml:space="preserve"
   width="276"
   height="170"
   viewBox="0 0 275.99999 170"
   sodipodi:docname="netresearch-logo_portrait_measures.svg"><metadata
     id="metadata3361"><rdf:RDF><cc:Work
         rdf:about=""><dc:format>image/svg+xml</dc:format><dc:type
           rdf:resource="http://purl.org/dc/dcmitype/StillImage" /><dc:title></dc:title></cc:Work></rdf:RDF></metadata><defs
     id="defs3359"><clipPath
       clipPathUnits="userSpaceOnUse"
       id="clipPath3371"><path
         d="m 798.578,305.559 1610.872,0 0,239.269 -1610.872,0 0,-239.269 z"
         id="path3373"
         inkscape:connector-curvature="0" /></clipPath><clipPath
       clipPathUnits="userSpaceOnUse"
       id="clipPath3381"><path
         d="m 291.508,263.742 268.504,0 0,322.918 -268.504,0 0,-322.918 z"
         id="path3383"
         inkscape:connector-curvature="0" /></clipPath><clipPath
       clipPathUnits="userSpaceOnUse"
       id="clipPath3371-9"><path
         d="m 798.578,305.559 1610.872,0 0,239.269 -1610.872,0 0,-239.269 z"
         id="path3373-3"
         inkscape:connector-curvature="0" /></clipPath><clipPath
       clipPathUnits="userSpaceOnUse"
       id="clipPath3371-6"><path
         d="m 798.578,305.559 1610.872,0 0,239.269 -1610.872,0 0,-239.269 z"
         id="path3373-1"
         inkscape:connector-curvature="0" /></clipPath></defs><sodipodi:namedview
     pagecolor="#ffffff"
     bordercolor="#666666"
     borderopacity="1"
     objecttolerance="10"
     gridtolerance="10"
     guidetolerance="10"
     inkscape:pageopacity="0"
     inkscape:pageshadow="2"
     inkscape:window-width="1920"
     inkscape:window-height="1021"
     id="namedview3357"
     showgrid="false"
     showguides="true"
     inkscape:guide-bbox="true"
     inkscape:zoom="3.8315476"
     inkscape:cx="181.31944"
     inkscape:cy="82.082256"
     inkscape:window-x="1920"
     inkscape:window-y="0"
     inkscape:window-maximized="1"
     inkscape:current-layer="g3365"
     fit-margin-top="24"
     fit-margin-left="24"
     fit-margin-right="24"
     fit-margin-bottom="24"><sodipodi:guide
       position="180.82361,136"
       orientation="0,1"
       id="guide4250"
       inkscape:label=""
       inkscape:color="rgb(0,0,255)" /><sodipodi:guide
       position="191.89652,68"
       orientation="0,1"
       id="guide4252"
       inkscape:label=""
       inkscape:color="rgb(0,0,255)" /><sodipodi:guide
       position="209.24409,127"
       orientation="0,1"
       id="guide4254"
       inkscape:label=""
       inkscape:color="rgb(0,0,255)" /><sodipodi:guide
       position="194.8493,76"
       orientation="0,1"
       id="guide4256"
       inkscape:label=""
       inkscape:color="rgb(0,0,255)" /><sodipodi:guide
       position="214.04236,85"
       orientation="0,1"
       id="guide4258"
       inkscape:label=""
       inkscape:color="rgb(0,0,255)" /><sodipodi:guide
       position="183.77639,24"
       orientation="0,1"
       id="guide4260"
       inkscape:label=""
       inkscape:color="rgb(0,0,255)" /><sodipodi:guide
       position="11.026876,48"
       orientation="0,1"
       id="guide3424"
       inkscape:label=""
       inkscape:color="rgb(0,0,255)" /></sodipodi:namedview><g
     id="g3363"
     inkscape:groupmode="layer"
     inkscape:label="ink_ext_XXXXXX"
     transform="matrix(1.25,0,0,-1.25,76,170)"><g
       id="g3365"
       transform="scale(0.1,0.1)"><path
         style="fill:#429da2;fill-opacity:1"
         d="M 278.85938,1151.9981 C 230.74051,1151.9981 192,1113.2732 192,1065.1544 l 0,-434.29693 c 0,-48.11887 38.74051,-86.85938 86.85938,-86.85938 l 97.14062,0 0,64 -66.42187,0 C 279.89955,607.99809 256,631.89764 256,661.57621 l 0,372.85939 c 0,29.6786 23.89955,53.5625 53.57813,53.5625 l 66.42187,0 0,64 -97.14062,0 z m 337.14062,0 0,-64 66.42187,0 c 29.67858,0 53.57813,-23.8839 53.57813,-53.5625 l 0,-372.85939 c 0,-29.67857 -23.89955,-53.57812 -53.57813,-53.57812 l -66.42187,0 0,-64 97.14062,0 c 48.11887,0 86.85938,38.74051 86.85938,86.85938 l 0,434.29693 c 0,48.1188 -38.74051,86.8437 -86.85938,86.8437 l -97.14062,0 z"
         id="rect3393"
         inkscape:connector-curvature="0" /><path
         style="opacity:0.98999999;fill:#4b4e58;fill-opacity:1;fill-rule:nonzero;stroke:none"
         d="m 1242.7969,448.1379 0,-256.25 32.0781,0 0,115.9844 c 2.1882,7.3612 5.4196,14.1162 9.6719,20.25 4.2523,6.1292 9.1076,11.427 14.5781,15.8437 5.4703,4.4122 11.3712,7.9023 17.6875,10.4688 6.3277,2.5801 12.6297,3.875 18.9688,3.875 13.1289,0 23.1047,-4.8438 29.9062,-14.5313 6.8127,-9.7057 10.2187,-24.4934 10.2187,-44.375 l 0,-107.5156 32.0938,0 0,114.875 c 0,11.2884 -1.045,21.9081 -3.1094,31.8438 -2.0639,9.9459 -5.4025,18.4773 -10.0156,25.5937 -4.6246,7.1164 -10.8268,12.7545 -18.6094,16.9219 -7.7938,4.1719 -17.2754,6.25 -28.4531,6.25 -15.3172,0 -29.4047,-2.9696 -42.2969,-8.9375 -12.881,-5.9689 -23.1062,-14.281 -30.6406,-24.9063 l 0,94.6094 z m -1258.3438,-8 0,-56.0625 -25.9062,0 0,-25.4063 25.9062,0 0,-129.2187 c 0,-13.7432 4.2386,-23.8814 12.7656,-30.375 8.5046,-6.5073 18.603,-9.75 30.2657,-9.75 5.1094,0 10.0284,0.423 14.7656,1.2813 4.7374,0.868 9.1097,1.9655 13.125,3.3124 3.8162,1.2899 7.1919,2.5625 10.2344,3.8438 l 0,26.6875 c -2.0234,-1.2077 -5.3472,-2.7468 -10.2344,-4.7031 -5.2335,-2.0815 -10.9961,-3.125 -17.3125,-3.125 -5.6056,0 -10.4655,1.5893 -14.5938,4.7968 -4.1506,3.1882 -6.4524,8.3367 -6.9374,15.4532 l 0,121.7968 42.6874,0 0,25.4063 -42.6874,0 0,56.0625 z m -292.1249,-52.7656 c -16.769,0 -32.2891,-3.0535 -46.5157,-9.2188 -14.22194,-6.1506 -25.09042,-14.3685 -32.62498,-24.625 l 0,30.5469 -29.18752,0 0,-192.1875 32.09376,0 0,115.9844 c 2.18584,7.3612 5.46848,14.1162 9.84376,20.25 4.37968,6.1292 9.48338,11.427 15.31248,15.8437 5.8426,4.4122 12.0494,7.9023 18.6094,10.4688 6.5644,2.5801 13.1231,3.875 19.6875,3.875 12.6361,0 22.07,-4.6659 28.2656,-13.9844 6.1991,-9.3265 9.2969,-24.3059 9.2969,-44.9219 l 0,-107.5156 32.0937,0 0,114.875 c 0,11.5332 -0.9196,22.2151 -2.7344,32.0312 -1.8237,9.8207 -4.9214,18.3578 -9.2969,25.5938 -4.3796,7.2417 -10.1988,12.8772 -17.5,16.9375 -7.2953,4.0342 -16.4028,6.0469 -27.3436,6.0469 z m 172.4843,0 c -14.3473,0 -27.4641,-2.6199 -39.375,-7.8907 -11.9108,-5.2707 -22.1814,-12.4503 -30.8125,-21.5468 -8.6276,-9.0726 -15.3296,-19.6335 -20.0781,-31.6563 -4.7373,-12.0444 -7.0938,-24.7984 -7.0938,-38.2968 0,-13.4996 2.3565,-26.3253 7.0938,-38.4688 4.7485,-12.1548 11.3611,-22.762 19.8906,-31.8438 8.5034,-9.0874 18.7187,-16.2761 30.6407,-21.5468 11.8996,-5.2798 25.0277,-7.9063 39.3749,-7.9063 9.486,0 18.6066,1.217 27.3594,3.6719 8.7526,2.4549 16.717,5.8525 23.8906,10.1406 7.1736,4.2961 13.4987,9.3732 18.9687,15.2656 2.8012,3.0132 5.288,6.1946 7.4844,9.5313 l -22.25,17.7031 c -1.9513,-4.9006 -4.8108,-9.3137 -8.578,-13.25 -3.7787,-3.9146 -8.092,-7.2378 -12.9532,-9.9375 -4.8614,-2.6905 -10.0888,-4.8346 -15.6719,-6.4219 -5.5945,-1.6008 -11.3249,-2.4062 -17.1562,-2.4062 -8.2676,0 -16.0939,1.584 -23.5156,4.7812 -7.4106,3.1939 -14.0438,7.6124 -19.8751,13.2657 -5.8313,5.6487 -10.59,12.3911 -14.2344,20.25 -3.6432,7.8508 -5.8304,16.5537 -6.5624,26.125 l 157.9219,0 c 0.2368,1.224 0.4224,2.9606 0.5472,5.1719 0.124,2.2009 0.172,4.6395 0.172,7.3437 0,12.7652 -2.234,25.1044 -6.7344,37.0156 -4.5003,11.8976 -10.8999,22.3191 -19.1563,31.2813 -8.2677,8.9621 -18.28,16.152 -30.078,21.5468 -11.7868,5.3995 -24.8714,8.0782 -39.2188,8.0782 z m 417.5937,0 c -14.3472,0 -27.4798,-2.6199 -39.3906,-7.8907 -11.911,-5.2707 -22.1838,-12.4503 -30.8125,-21.5468 -8.6287,-9.0726 -15.3251,-19.6335 -20.0625,-31.6563 -4.7486,-12.0444 -7.1093,-24.7984 -7.1093,-38.2968 0,-13.4996 2.3607,-26.3253 7.1093,-38.4688 4.7374,-12.1548 11.3751,-22.762 19.8907,-31.8438 8.5045,-9.0874 18.7141,-16.2761 30.6249,-21.5468 11.9108,-5.2798 25.0436,-7.9063 39.3907,-7.9063 9.4859,0 18.5909,1.217 27.3437,3.6719 8.7528,2.4549 16.7172,5.8525 23.8907,10.1406 7.1737,4.2961 13.4825,9.3732 18.9531,15.2656 2.7969,3.0088 5.2882,6.1833 7.4843,9.5157 l -22.2343,17.7187 c -1.9514,-4.9006 -4.811,-9.3137 -8.5782,-13.25 -3.7784,-3.9146 -8.0916,-7.2378 -12.9531,-9.9375 -4.8613,-2.6905 -10.1001,-4.8346 -15.6718,-6.4219 -5.5946,-1.6008 -11.3091,-2.4062 -17.1407,-2.4062 -8.2676,0 -16.1096,1.584 -23.5312,4.7812 -7.4104,3.1939 -14.0436,7.6124 -19.875,13.2657 -5.8314,5.6487 -10.5912,12.3911 -14.2344,20.25 -3.6432,7.8508 -5.8138,16.5537 -6.5469,26.125 l 157.9063,0 c 0.2368,1.224 0.4232,2.9606 0.5472,5.1719 0.124,2.2009 0.172,4.6394 0.172,7.3437 0,12.7652 -2.234,25.1044 -6.7344,37.0156 -4.5004,11.8976 -10.873,22.3191 -19.1407,31.2813 -8.2677,8.9621 -18.2957,16.152 -30.0937,21.5468 -11.7868,5.3995 -24.856,8.0782 -39.2032,8.0782 z m 180.31252,0 c -10.20768,0 -19.74824,-1.2648 -28.62488,-3.8438 -8.88816,-2.5801 -16.576,-6.3834 -23.14072,-11.4219 -6.56448,-5.027 -11.7328,-11.2802 -15.5,-18.7656 -3.77848,-7.4808 -5.65624,-16.0213 -5.65624,-25.5937 0,-7.6049 1.2044,-13.994 3.64064,-19.1406 2.42496,-5.1501 6.31416,-9.5666 11.67192,-13.25 5.33504,-3.6778 12.154,-6.8739 20.42184,-9.5782 8.25656,-2.686 18.094,-5.5163 29.5312,-8.4687 8.98936,-2.2067 16.91736,-4.2939 23.7188,-6.25 6.8012,-1.9664 12.38936,-4.1937 16.7656,-6.6407 4.37632,-2.4548 7.6712,-5.3272 9.85936,-8.6406 2.1996,-3.3145 3.28128,-7.3083 3.28128,-11.9687 0,-10.0609 -4.09088,-17.8595 -12.2344,-23.375 -8.15488,-5.5235 -19.13768,-8.2969 -33,-8.2969 -12.40712,0 -24.19264,2.1616 -35.35928,6.4531 -11.20032,4.2972 -22.3848,10.744 -33.56256,19.3281 L 380.6718,216.216 c 10.69284,-9.0965 23.46484,-16.0314 38.29692,-20.8125 14.82096,-4.7902 29.90152,-7.1875 45.2188,-7.1875 23.09992,0 41.4372,5.2731 55.06248,15.8281 13.614,10.5495 20.43752,24.7868 20.43752,42.7032 0,8.1036 -1.52824,14.9762 -4.56248,20.625 -3.04552,5.635 -7.65584,10.5533 -13.85944,14.7344 -6.20336,4.1628 -13.9932,7.7831 -23.34376,10.8437 -9.3616,3.0823 -20.3716,6.0868 -33.0156,9.0313 -8.01952,1.9652 -14.8864,3.8107 -20.59376,5.5312 -5.70728,1.7262 -10.38784,3.6604 -14.0312,5.875 -3.66576,2.1975 -6.28464,4.7853 -7.87504,7.7344 -1.56792,2.949 -2.35936,6.619 -2.35936,11.0312 0,11.0447 4.08632,19.0855 12.21872,24.125 8.15504,5.0396 18.06032,7.5625 29.7344,7.5625 10.44464,0 20.65832,-1.7935 30.64064,-5.3437 9.9708,-3.5662 18.96488,-8.8856 26.9844,-16.0156 l 14.59368,19.5 c -8.51584,7.6003 -18.96352,13.7557 -31.35928,18.4218 -12.396,4.6604 -25.79336,6.9688 -40.14072,6.9688 z m 183.26568,0 c -14.34712,0 -27.49544,-2.6199 -39.40616,-7.8907 -11.92232,-5.2707 -22.19544,-12.4503 -30.81264,-21.5468 -8.64,-9.0726 -15.29816,-19.6335 -20.04688,-31.6563 -4.73728,-12.0444 -7.12488,-24.7984 -7.12488,-38.2968 0,-13.4996 2.3876,-26.3253 7.12488,-38.4688 4.74872,-12.1548 11.34776,-22.762 19.87512,-31.8438 8.48184,-9.0874 18.70288,-16.2761 30.62488,-21.5468 11.89976,-5.2798 25.03216,-7.9063 39.39072,-7.9063 9.4744,0 18.5912,1.217 27.34368,3.6719 8.7528,2.4549 16.71696,5.8525 23.89072,10.1406 7.17344,4.2961 13.49824,9.3732 18.96864,15.2656 2.7996,3.0114 5.2724,6.1957 7.4688,9.5313 l -22.2344,17.7031 c -1.96264,-4.9006 -4.8064,-9.3137 -8.56248,-13.25 -3.77856,-3.9146 -8.10296,-7.2378 -12.95312,-9.9375 -4.87264,-2.6905 -10.10424,-4.8346 -15.68744,-6.4219 -5.60592,-1.6008 -11.30944,-2.4062 -17.14072,-2.4062 -8.27888,0 -16.11664,1.584 -23.5156,4.7812 -7.42184,3.1939 -14.05928,7.6124 -19.89064,13.2657 -5.83144,5.6487 -10.56016,12.3911 -14.20304,20.25 -3.64336,7.8508 -5.84504,16.5537 -6.57824,26.125 l 157.92192,0 c 0.2368,1.224 0.4224,2.9606 0.5472,5.1719 0.1128,2.2009 0.188,4.6395 0.1872,7.3437 0,12.7652 -2.2608,25.1044 -6.75,37.0156 -4.5004,11.8976 -10.8844,22.3191 -19.14048,31.2813 -8.27912,8.9621 -18.30704,16.152 -30.09384,21.5468 -11.80936,5.3995 -24.86712,8.0782 -39.20312,8.0782 z m 186.87504,0 c -13.1292,0 -25.76272,-2.0781 -37.92192,-6.25 -12.15888,-4.1674 -24.44768,-10.4263 -36.84368,-18.7656 l 10.578,-21.5782 c 21.14856,15.3751 41.3228,23.0625 60.53128,23.0625 16.0504,0 28.4504,-4.6251 37.20312,-13.7969 8.7528,-9.1986 13.14064,-20.9466 13.14064,-36.6562 l 0,-11.0625 c -9.5756,2.7797 -22.30784,7.7969 -53.25,7.7969 -42.624,0 -76.99416,-24.7829 -77.29688,-63 0,-35.1209 29.32704,-58.9063 63.25,-58.9063 29.75424,0 58.17688,13.9369 71.65624,31.2813 l 0.7496,-9.5625 c 0.4848,-7.1165 3.2656,-12.1493 8.37504,-15.0938 5.09816,-2.949 10.34104,-4.4219 15.68744,-4.4219 1.9512,0 4.01056,0.13 6.18752,0.375 2.19928,0.2489 4.51248,0.604 6.9376,1.0938 l 0,27.9843 c -6.8012,0.2589 -10.2188,4.1616 -10.2188,11.7813 l 0,78.4375 c 0,24.5386 -7.0416,43.5348 -21.14064,57.0469 -14.09896,13.4859 -33.3184,20.2343 -57.62496,20.2343 z m 310.71876,0 c -14.5843,0 -27.7758,-2.6199 -39.5626,-7.8907 -11.7983,-5.2707 -21.9487,-12.3952 -30.4532,-21.3437 -8.5158,-8.9622 -15.0899,-19.4693 -19.7031,-31.5 -4.6245,-12.0228 -6.9218,-24.7874 -6.9218,-38.2812 0,-13.5042 2.383,-26.3375 7.1093,-38.4844 4.7597,-12.1515 11.3635,-22.7464 19.8907,-31.8282 8.4932,-9.0873 18.7184,-16.3239 30.6406,-21.7187 11.8997,-5.4131 25.0166,-8.1094 39.375,-8.1094 9.4746,0 18.5318,1.217 27.1718,3.6719 8.6172,2.4549 16.4548,5.7812 23.5157,9.9531 7.0494,4.1686 13.2038,9.1983 18.4376,15.0781 2.0802,2.3532 3.9263,4.784 5.6405,7.3282 l -25.5,20.2812 c -1.495,-3.6141 -3.6067,-6.9864 -6.5938,-10.125 -3.4176,-3.5491 -7.3702,-6.6753 -11.8593,-9.375 -4.5116,-2.6917 -9.4872,-4.8446 -14.9688,-6.4375 -5.459,-1.5963 -10.995,-2.375 -16.5781,-2.375 -8.7527,0 -16.9621,1.8223 -24.6093,5.5 -7.6698,3.6835 -14.3552,8.7751 -20.0626,15.2813 -5.7186,6.5027 -10.2768,14.1631 -13.6718,23 -3.4178,8.8562 -5.1094,18.2939 -5.1094,28.3594 0,10.3057 1.6396,19.7596 4.9219,28.3437 3.2824,8.5933 7.7223,16.0856 13.3281,22.4687 5.5834,6.3821 12.2528,11.3324 20.0468,14.8907 7.7716,3.5707 16.04,5.3593 24.7814,5.3593 10.6928,0 20.4304,-2.5255 29.1718,-7.5468 8.7539,-5.0338 15.5503,-12.093 20.4219,-21.1563 l 25.375,20.1875 c -6.5345,9.5378 -14.9231,17.4703 -25.1719,23.7969 -13.738,8.46 -30.0908,12.6719 -49.0624,12.6719 z m -967.8751,-1.8281 c -12.1592,0 -23.5885,-2.8638 -34.2813,-9.4844 -10.7153,-6.6285 -19.3418,-12.454 -25.9062,-22.5313 l 0,30.5469 -29.8906,0 0,-192.1875 32.0937,0 0,118.5469 c 5.1095,14.0017 13.7725,24.9148 26.0782,32.7656 12.2717,7.8634 26.434,12.0416 42.4844,12.5313 l 0,29.4531 c -1.2295,0.24 -2.6831,0.359 -4.3751,0.359 z m 859.5781,0 c -12.1592,0 -23.5885,-2.8638 -34.2812,-9.4844 -10.71536,-6.6285 -19.35736,-12.454 -25.92176,-22.5313 l 0,30.5469 -29.87512,0 0,-192.1875 32.07808,0 0,118.5469 c 5.10952,14.0017 13.7724,24.9148 26.0782,32.7656 12.2718,7.8634 26.434,12.0416 42.4844,12.5313 l 0,29.4531 c -1.2295,0.24 -2.6832,0.359 -4.3751,0.359 z M -135.1875,363.091 c 8.516,0 16.5437,-1.5331 24.0781,-4.5937 7.546,-3.0777 14.1676,-7.2992 19.875,-12.7032 5.7186,-5.4039 10.4561,-11.9638 14.2344,-19.7031 3.7674,-7.7256 6.0012,-16.1496 6.7344,-25.2187 l -129.1094,0 c 0.7312,9.0691 2.8704,17.4263 6.3906,25.0312 3.5158,7.6197 8.1409,14.1732 13.8594,19.6875 5.7073,5.5292 12.3404,9.8286 19.875,12.9063 7.5346,3.0606 15.5467,4.5937 24.0625,4.5937 z m 417.5937,0 c 8.5159,0 16.528,-1.5331 24.0625,-4.5937 7.5346,-3.0777 14.1721,-7.2992 19.8907,-12.7032 5.7072,-5.4039 10.4402,-11.9638 14.2188,-19.7031 3.7672,-7.7256 6.0168,-16.1496 6.75,-25.2187 l -129.1095,0 c 0.7328,9.0691 2.8559,17.4263 6.3751,25.0312 3.5304,7.6197 8.1564,14.1732 13.8749,19.6875 5.7186,5.5292 12.3249,9.8286 19.8595,12.9063 7.5344,3.0606 15.5623,4.5937 24.078,4.5937 z m 363.5782,0 c 8.50448,0 16.50096,-1.5331 24.04688,-4.5937 7.53456,-3.0777 14.1608,-7.2992 19.89056,-12.7032 5.7072,-5.4039 10.4516,-11.9638 14.2188,-19.7031 3.7672,-7.7256 6.03264,-16.1496 6.7656,-25.2187 l -129.12496,0 c 0.7336,9.0691 2.85992,17.4263 6.39056,25.0312 3.51936,7.6197 8.12944,14.1732 13.85944,19.6875 5.7072,5.5292 12.3292,9.8286 19.87496,12.9063 7.53448,3.0606 15.56224,4.5937 24.07816,4.5937 z m 185.40624,-75.1093 c 21.00176,0 33.09184,-4.1627 48.15624,-10.0313 l 0,-19.7969 c 0,-13.0384 -18.25336,-45.6406 -59.81248,-45.6406 -27.90144,0.419 -43.04688,18.1203 -43.04688,37.5469 0,28.5736 29.05512,37.9219 54.70312,37.9219 z"
         id="path3375-3"
         inkscape:connector-curvature="0"
         sodipodi:nodetypes="cccccccscsccscccscccccccccscscccccsccccccccsccccccccccscsccscccsssccscccsscccccccsccccccscccsscccscccsscccccccsccccccscscsscccscccccccscsccccscscccccccscsccccsscccscccsscccccccsccccccccccsscccscsccscccccccccscsscccccccsccccccccscccscccsccccssccccccccccsssccccccccccsssccccccccssccccccccsscccsccccssccscccccc" /><path
         d="m 640,908.04518 c 0,69.8827 -28.2561,117.20132 -99.18071,117.20132 -53.94614,0 -98.36321,-15.7055 -130.03143,-53.83152 l -3.39289,44.32282 -55.39497,0.261 0,-335.99882 64,0 0,227.2288 c 14.48885,37.2624 62.45222,68.9651 104.65732,68.3533 55.48981,-0.8043 53.78072,-59.4693 55.34268,-99.1325 l 0,-196.4496 64,0"
         style="fill:#4b4e58;fill-opacity:1;fill-rule:nonzero;stroke:none"
         id="path3375-5-6"
         inkscape:connector-curvature="0"
         sodipodi:nodetypes="cccccccccccc" /></g><g
       inkscape:groupmode="layer"
       id="layer2"
       inkscape:label="Measures"
       style="display:inline"><path
         style="color:#000000;font-style:normal;font-variant:normal;font-weight:normal;font-stretch:normal;font-size:medium;line-height:normal;font-family:sans-serif;text-indent:0;text-align:start;text-decoration:none;text-decoration-line:none;text-decoration-style:solid;text-decoration-color:#000000;letter-spacing:normal;word-spacing:normal;text-transform:none;direction:ltr;block-progression:tb;writing-mode:lr-tb;baseline-shift:baseline;text-anchor:start;white-space:normal;clip-rule:nonzero;display:inline;overflow:visible;visibility:visible;opacity:1;isolation:auto;mix-blend-mode:normal;color-interpolation:sRGB;color-interpolation-filters:linearRGB;solid-color:#000000;solid-opacity:1;fill:#000000;fill-opacity:1;fill-rule:evenodd;stroke:none;stroke-width:2.68111372;stroke-linecap:butt;stroke-linejoin:miter;stroke-miterlimit:4;stroke-dasharray:none;stroke-dashoffset:0;stroke-opacity:1;color-rendering:auto;image-rendering:auto;shape-rendering:auto;text-rendering:auto;enable-background:accumulate"
         d="m -7.0328895,109.2 37.4685065,0 0,-0.4 -37.4685065,0 0,0.4 z"
         id="path3465-7"
         inkscape:connector-curvature="0" /><path
         style="color:#000000;font-style:normal;font-variant:normal;font-weight:normal;font-stretch:normal;font-size:medium;line-height:normal;font-family:sans-serif;text-indent:0;text-align:start;text-decoration:none;text-decoration-line:none;text-decoration-style:solid;text-decoration-color:#000000;letter-spacing:normal;word-spacing:normal;text-transform:none;direction:ltr;block-progression:tb;writing-mode:lr-tb;baseline-shift:baseline;text-anchor:start;white-space:normal;clip-rule:nonzero;display:inline;overflow:visible;visibility:visible;opacity:1;isolation:auto;mix-blend-mode:normal;color-interpolation:sRGB;color-interpolation-filters:linearRGB;solid-color:#000000;solid-opacity:1;fill:#000000;fill-opacity:1;fill-rule:evenodd;stroke:none;stroke-width:2.68111372;stroke-linecap:butt;stroke-linejoin:miter;stroke-miterlimit:4;stroke-dasharray:none;stroke-dashoffset:0;stroke-opacity:1;color-rendering:auto;image-rendering:auto;shape-rendering:auto;text-rendering:auto;enable-background:accumulate"
         d="m -7.0328895,61.2 37.4685065,0 0,-0.4 -37.4685065,0 0,0.4 z"
         id="path3465-7-5"
         inkscape:connector-curvature="0" /><g
         style="display:inline"
         id="g4357"
         transform="matrix(0.1,0,0,0.1,1.6,90.14056)"><path
           sodipodi:nodetypes="cc"
           inkscape:connector-curvature="0"
           id="path4320"
           d="m 363,216.48528 235.5,0"
           style="fill:none;fill-rule:evenodd;stroke:#000000;stroke-width:4.00851965;stroke-linecap:butt;stroke-linejoin:miter;stroke-miterlimit:4;stroke-dasharray:none;stroke-opacity:1" /><path
           sodipodi:nodetypes="ccc"
           inkscape:connector-curvature="0"
           id="path4322"
           d="m 374.5,228.48528 -12,-12 12,-12"
           style="fill:none;fill-rule:evenodd;stroke:#000000;stroke-width:4;stroke-linecap:butt;stroke-linejoin:miter;stroke-miterlimit:4;stroke-dasharray:none;stroke-opacity:1" /><path
           sodipodi:nodetypes="ccc"
           inkscape:connector-curvature="0"
           id="path4322-6"
           d="m 585.58579,228.48528 12,-12 -12,-12"
           style="fill:none;fill-rule:evenodd;stroke:#000000;stroke-width:4;stroke-linecap:butt;stroke-linejoin:miter;stroke-miterlimit:4;stroke-dasharray:none;stroke-opacity:1" /><text
           transform="scale(1,-1)"
           sodipodi:linespacing="125%"
           id="text4345"
           y="-168.20813"
           x="439.8204"
           style="font-style:normal;font-variant:normal;font-weight:normal;font-stretch:normal;font-size:40px;line-height:125%;font-family:'DejaVu Sans';-inkscape-font-specification:'DejaVu Sans';letter-spacing:0px;word-spacing:0px;fill:#000000;fill-opacity:1;stroke:none;stroke-width:1px;stroke-linecap:butt;stroke-linejoin:miter;stroke-opacity:1"
           xml:space="preserve"><tspan
             y="-168.20813"
             x="439.8204"
             id="tspan4347"
             sodipodi:role="line">2.5a</tspan></text>
</g><path
         style="color:#000000;font-style:normal;font-variant:normal;font-weight:normal;font-stretch:normal;font-size:medium;line-height:normal;font-family:sans-serif;text-indent:0;text-align:start;text-decoration:none;text-decoration-line:none;text-decoration-style:solid;text-decoration-color:#000000;letter-spacing:normal;word-spacing:normal;text-transform:none;direction:ltr;block-progression:tb;writing-mode:lr-tb;baseline-shift:baseline;text-anchor:start;white-space:normal;clip-rule:nonzero;display:inline;overflow:visible;visibility:visible;opacity:1;isolation:auto;mix-blend-mode:normal;color-interpolation:sRGB;color-interpolation-filters:linearRGB;solid-color:#000000;solid-opacity:1;fill:#000000;fill-opacity:1;fill-rule:evenodd;stroke:none;stroke-width:0.39809269;stroke-linecap:butt;stroke-linejoin:miter;stroke-miterlimit:4;stroke-dasharray:none;stroke-dashoffset:0;stroke-opacity:1;color-rendering:auto;image-rendering:auto;shape-rendering:auto;text-rendering:auto;enable-background:accumulate"
         d="m -3.6414515,107.53946 -1.342184,1.34218 -1.342192,-1.34218 0.282816,-0.28282 0.859376,0.85938 0,-46.175004 -0.859376,0.859376 -0.282816,-0.281248 1.342192,-1.342192 1.342184,1.342192 -0.284376,0.281248 -0.859376,-0.860936 0,46.178124 0.859376,-0.86094 0.284376,0.28282 z"
         id="path4320-0"
         inkscape:connector-curvature="0" /><text
         xml:space="preserve"
         style="font-style:normal;font-variant:normal;font-weight:normal;font-stretch:normal;font-size:4px;line-height:125%;font-family:'DejaVu Sans';-inkscape-font-specification:'DejaVu Sans';text-align:center;letter-spacing:0px;word-spacing:0px;text-anchor:middle;fill:#000000;fill-opacity:1;stroke:none;stroke-width:1px;stroke-linecap:butt;stroke-linejoin:miter;stroke-opacity:1"
         x="-0.4497343"
         y="-83.802299"
         id="text4345-9"
         sodipodi:linespacing="125%"
         transform="scale(1,-1)"><tspan
           sodipodi:role="line"
           id="tspan4347-6"
           x="-0.4497343"
           y="-83.802299">5a</tspan></text>
<path
         sodipodi:nodetypes="ccccccccccccccc"
         inkscape:connector-curvature="0"
         id="path4320-0-0"
         d="m 97.351489,113.85878 -1.342184,1.34219 -1.342192,-1.34219 0.284376,-0.28281 0.859376,0.86093 0,-59.243545 -0.859376,0.860938 -0.284376,-0.282813 1.342192,-1.342187 1.342184,1.342187 -0.284376,0.282813 -0.859376,-0.860938 0,59.243545 0.859376,-0.86093 z"
         style="color:#000000;font-style:normal;font-variant:normal;font-weight:normal;font-stretch:normal;font-size:medium;line-height:normal;font-family:sans-serif;text-indent:0;text-align:start;text-decoration:none;text-decoration-line:none;text-decoration-style:solid;text-decoration-color:#000000;letter-spacing:normal;word-spacing:normal;text-transform:none;direction:ltr;block-progression:tb;writing-mode:lr-tb;baseline-shift:baseline;text-anchor:start;white-space:normal;clip-rule:nonzero;display:inline;overflow:visible;visibility:visible;opacity:1;isolation:auto;mix-blend-mode:normal;color-interpolation:sRGB;color-interpolation-filters:linearRGB;solid-color:#000000;solid-opacity:1;fill:#000000;fill-opacity:1;fill-rule:evenodd;stroke:none;stroke-width:3.98092699;stroke-linecap:butt;stroke-linejoin:miter;stroke-miterlimit:4;stroke-dasharray:none;stroke-dashoffset:0;stroke-opacity:1;color-rendering:auto;image-rendering:auto;shape-rendering:auto;text-rendering:auto;enable-background:accumulate" /><text
         xml:space="preserve"
         style="font-style:normal;font-variant:normal;font-weight:normal;font-stretch:normal;font-size:4px;line-height:125%;font-family:'DejaVu Sans';-inkscape-font-specification:'DejaVu Sans';text-align:center;letter-spacing:0px;word-spacing:0px;text-anchor:middle;fill:#000000;fill-opacity:1;stroke:none;stroke-width:1px;stroke-linecap:butt;stroke-linejoin:miter;stroke-opacity:1"
         x="107.52975"
         y="-86.563881"
         id="text4345-9-0"
         sodipodi:linespacing="125%"
         transform="scale(1,-1)"><tspan
           sodipodi:role="line"
           id="tspan4347-6-1"
           x="107.52975"
           y="-86.563881">b=19/3*a</tspan></text>
<path
         style="color:#000000;font-style:normal;font-variant:normal;font-weight:normal;font-stretch:normal;font-size:medium;line-height:normal;font-family:sans-serif;text-indent:0;text-align:start;text-decoration:none;text-decoration-line:none;text-decoration-style:solid;text-decoration-color:#000000;letter-spacing:normal;word-spacing:normal;text-transform:none;direction:ltr;block-progression:tb;writing-mode:lr-tb;baseline-shift:baseline;text-anchor:start;white-space:normal;clip-rule:nonzero;display:inline;overflow:visible;visibility:visible;opacity:1;isolation:auto;mix-blend-mode:normal;color-interpolation:sRGB;color-interpolation-filters:linearRGB;solid-color:#000000;solid-opacity:1;fill:#000000;fill-opacity:1;fill-rule:evenodd;stroke:none;stroke-width:2.18314934;stroke-linecap:butt;stroke-linejoin:miter;stroke-miterlimit:4;stroke-dasharray:none;stroke-dashoffset:0;stroke-opacity:1;color-rendering:auto;image-rendering:auto;shape-rendering:auto;text-rendering:auto;enable-background:accumulate"
         d="m 34.662496,63.672185 0,4.289453 0.4,0 0,-4.289453 -0.4,0 z"
         id="path3465-6"
         inkscape:connector-curvature="0" /><path
         style="color:#000000;font-style:normal;font-variant:normal;font-weight:normal;font-stretch:normal;font-size:medium;line-height:normal;font-family:sans-serif;text-indent:0;text-align:start;text-decoration:none;text-decoration-line:none;text-decoration-style:solid;text-decoration-color:#000000;letter-spacing:normal;word-spacing:normal;text-transform:none;direction:ltr;block-progression:tb;writing-mode:lr-tb;baseline-shift:baseline;text-anchor:start;white-space:normal;clip-rule:nonzero;display:inline;overflow:visible;visibility:visible;opacity:1;isolation:auto;mix-blend-mode:normal;color-interpolation:sRGB;color-interpolation-filters:linearRGB;solid-color:#000000;solid-opacity:1;fill:#000000;fill-opacity:1;fill-rule:evenodd;stroke:none;stroke-width:2.18314934;stroke-linecap:butt;stroke-linejoin:miter;stroke-miterlimit:4;stroke-dasharray:none;stroke-dashoffset:0;stroke-opacity:1;color-rendering:auto;image-rendering:auto;shape-rendering:auto;text-rendering:auto;enable-background:accumulate"
         d="m 63.90566,63.672185 0,4.290039 0.4,0 0,-4.290039 -0.4,0 z"
         id="path3465-7-5-3-0"
         inkscape:connector-curvature="0" /><g
         style="display:inline"
         transform="matrix(0.1,0,0,0.1,1.3912075,44.193273)"
         id="g4357-6-9-2"><path
           style="color:#000000;font-style:normal;font-variant:normal;font-weight:normal;font-stretch:normal;font-size:medium;line-height:normal;font-family:sans-serif;text-indent:0;text-align:start;text-decoration:none;text-decoration-line:none;text-decoration-style:solid;text-decoration-color:#000000;letter-spacing:normal;word-spacing:normal;text-transform:none;direction:ltr;block-progression:tb;writing-mode:lr-tb;baseline-shift:baseline;text-anchor:start;white-space:normal;clip-rule:nonzero;display:inline;overflow:visible;visibility:visible;opacity:1;isolation:auto;mix-blend-mode:normal;color-interpolation:sRGB;color-interpolation-filters:linearRGB;solid-color:#000000;solid-opacity:1;fill:#000000;fill-opacity:1;fill-rule:evenodd;stroke:none;stroke-width:3.98092699;stroke-linecap:butt;stroke-linejoin:miter;stroke-miterlimit:4;stroke-dasharray:none;stroke-dashoffset:0;stroke-opacity:1;color-rendering:auto;image-rendering:auto;shape-rendering:auto;text-rendering:auto;enable-background:accumulate"
           d="m 43.531902,109.88672 -1.677734,1.67773 1.677734,1.67774 0.353516,-0.35547 -1.076172,-1.07422 34.340074,0 -1.076172,1.07422 0.353516,0.35547 1.677734,-1.67774 -1.677734,-1.67773 -0.353516,0.35547 1.076172,1.07422 -34.340074,0 1.076172,-1.07422 z"
           transform="matrix(8,0,0,-8,-7.1247462e-6,1109)"
           id="path4320-0-0-8"
           inkscape:connector-curvature="0"
           sodipodi:nodetypes="ccccccccccccccc" /><text
           transform="scale(1,-1)"
           sodipodi:linespacing="125%"
           id="text4345-9-0-8"
           y="-168.20813"
           x="482.95126"
           style="font-style:normal;font-variant:normal;font-weight:normal;font-stretch:normal;font-size:40px;line-height:125%;font-family:'DejaVu Sans';-inkscape-font-specification:'DejaVu Sans';text-align:center;letter-spacing:0px;word-spacing:0px;text-anchor:middle;fill:#000000;fill-opacity:1;stroke:none;stroke-width:1px;stroke-linecap:butt;stroke-linejoin:miter;stroke-opacity:1"
           xml:space="preserve"><tspan
             y="-168.20813"
             x="482.95126"
             id="tspan4347-6-1-4"
             sodipodi:role="line">3a</tspan></text>
</g><path
         style="color:#000000;font-style:normal;font-variant:normal;font-weight:normal;font-stretch:normal;font-size:medium;line-height:normal;font-family:sans-serif;text-indent:0;text-align:start;text-decoration:none;text-decoration-line:none;text-decoration-style:solid;text-decoration-color:#000000;letter-spacing:normal;word-spacing:normal;text-transform:none;direction:ltr;block-progression:tb;writing-mode:lr-tb;baseline-shift:baseline;text-anchor:start;white-space:normal;clip-rule:nonzero;display:inline;overflow:visible;visibility:visible;opacity:1;isolation:auto;mix-blend-mode:normal;color-interpolation:sRGB;color-interpolation-filters:linearRGB;solid-color:#000000;solid-opacity:1;fill:#000000;fill-opacity:1;fill-rule:evenodd;stroke:none;stroke-width:2.18314934;stroke-linecap:butt;stroke-linejoin:miter;stroke-miterlimit:4;stroke-dasharray:none;stroke-dashoffset:0;stroke-opacity:1;color-rendering:auto;image-rendering:auto;shape-rendering:auto;text-rendering:auto;enable-background:accumulate"
         d="m 35.08884,101.67796 -32.0922195,0 0,0.4 32.0922195,0 0,-0.4 z"
         id="path3465-6-9"
         inkscape:connector-curvature="0" /><path
         style="color:#000000;font-style:normal;font-variant:normal;font-weight:normal;font-stretch:normal;font-size:medium;line-height:normal;font-family:sans-serif;text-indent:0;text-align:start;text-decoration:none;text-decoration-line:none;text-decoration-style:solid;text-decoration-color:#000000;letter-spacing:normal;word-spacing:normal;text-transform:none;direction:ltr;block-progression:tb;writing-mode:lr-tb;baseline-shift:baseline;text-anchor:start;white-space:normal;clip-rule:nonzero;display:inline;overflow:visible;visibility:visible;opacity:1;isolation:auto;mix-blend-mode:normal;color-interpolation:sRGB;color-interpolation-filters:linearRGB;solid-color:#000000;solid-opacity:1;fill:#000000;fill-opacity:1;fill-rule:evenodd;stroke:none;stroke-width:2.18314934;stroke-linecap:butt;stroke-linejoin:miter;stroke-miterlimit:4;stroke-dasharray:none;stroke-dashoffset:0;stroke-opacity:1;color-rendering:auto;image-rendering:auto;shape-rendering:auto;text-rendering:auto;enable-background:accumulate"
         d="m 35.093224,67.670156 -32.0966035,0 0,0.4 32.0966035,0 0,-0.4 z"
         id="path3465-7-5-3-0-8"
         inkscape:connector-curvature="0" /><path
         sodipodi:nodetypes="ccccccccccccccc"
         inkscape:connector-curvature="0"
         id="path4320-0-0-8-4"
         d="m 6.5886934,100.33272 -1.3421839,1.34219 -1.342192,-1.34219 0.284376,-0.28281 0.859376,0.86093 0,-32.130636 -0.859376,0.860938 -0.284376,-0.282813 1.342192,-1.342187 1.3421839,1.342187 -0.284376,0.282813 -0.8593759,-0.860938 0,32.130636 0.8593759,-0.86093 z"
         style="color:#000000;font-style:normal;font-variant:normal;font-weight:normal;font-stretch:normal;font-size:medium;line-height:normal;font-family:sans-serif;text-indent:0;text-align:start;text-decoration:none;text-decoration-line:none;text-decoration-style:solid;text-decoration-color:#000000;letter-spacing:normal;word-spacing:normal;text-transform:none;direction:ltr;block-progression:tb;writing-mode:lr-tb;baseline-shift:baseline;text-anchor:start;white-space:normal;clip-rule:nonzero;display:inline;overflow:visible;visibility:visible;opacity:1;isolation:auto;mix-blend-mode:normal;color-interpolation:sRGB;color-interpolation-filters:linearRGB;solid-color:#000000;solid-opacity:1;fill:#000000;fill-opacity:1;fill-rule:evenodd;stroke:none;stroke-width:3.98092699;stroke-linecap:butt;stroke-linejoin:miter;stroke-miterlimit:4;stroke-dasharray:none;stroke-dashoffset:0;stroke-opacity:1;color-rendering:auto;image-rendering:auto;shape-rendering:auto;text-rendering:auto;enable-background:accumulate" /><text
         xml:space="preserve"
         style="font-style:normal;font-variant:normal;font-weight:normal;font-stretch:normal;font-size:4px;line-height:125%;font-family:'DejaVu Sans';-inkscape-font-specification:'DejaVu Sans';text-align:center;letter-spacing:0px;word-spacing:0px;text-anchor:middle;display:inline;fill:#000000;fill-opacity:1;stroke:none;stroke-width:1px;stroke-linecap:butt;stroke-linejoin:miter;stroke-opacity:1"
         x="10.641053"
         y="-83.584579"
         id="text4345-9-0-8-4"
         sodipodi:linespacing="125%"
         transform="scale(1,-1)"><tspan
           sodipodi:role="line"
           id="tspan4347-6-1-4-9"
           x="10.641053"
           y="-83.584579">3.5a</tspan></text>
<path
         style="color:#000000;font-style:normal;font-variant:normal;font-weight:normal;font-stretch:normal;font-size:medium;line-height:normal;font-family:sans-serif;text-indent:0;text-align:start;text-decoration:none;text-decoration-line:none;text-decoration-style:solid;text-decoration-color:#000000;letter-spacing:normal;word-spacing:normal;text-transform:none;direction:ltr;block-progression:tb;writing-mode:lr-tb;baseline-shift:baseline;text-anchor:start;white-space:normal;clip-rule:nonzero;display:inline;overflow:visible;visibility:visible;opacity:1;isolation:auto;mix-blend-mode:normal;color-interpolation:sRGB;color-interpolation-filters:linearRGB;solid-color:#000000;solid-opacity:1;fill:#000000;fill-opacity:1;fill-rule:evenodd;stroke:none;stroke-width:4.6367116;stroke-linecap:butt;stroke-linejoin:miter;stroke-miterlimit:4;stroke-dasharray:none;stroke-dashoffset:0;stroke-opacity:1;color-rendering:auto;image-rendering:auto;shape-rendering:auto;text-rendering:auto;enable-background:accumulate"
         d="m -41.88,11.547566 0,7.682527 0.4,0 0,-7.682527 -0.4,0 z"
         id="path3465-7-5-3-2"
         inkscape:connector-curvature="0" /><g
         style="display:inline"
         transform="matrix(0.1,0,0,0.1,112.96941,-8.2339564)"
         id="g4357-6-9-4-6"><path
           style="color:#000000;font-style:normal;font-variant:normal;font-weight:normal;font-stretch:normal;font-size:medium;line-height:normal;font-family:sans-serif;text-indent:0;text-align:start;text-decoration:none;text-decoration-line:none;text-decoration-style:solid;text-decoration-color:#000000;letter-spacing:normal;word-spacing:normal;text-transform:none;direction:ltr;block-progression:tb;writing-mode:lr-tb;baseline-shift:baseline;text-anchor:start;white-space:normal;clip-rule:nonzero;display:inline;overflow:visible;visibility:visible;opacity:1;isolation:auto;mix-blend-mode:normal;color-interpolation:sRGB;color-interpolation-filters:linearRGB;solid-color:#000000;solid-opacity:1;fill:#000000;fill-opacity:1;fill-rule:evenodd;stroke:none;stroke-width:3.98092699;stroke-linecap:butt;stroke-linejoin:miter;stroke-miterlimit:4;stroke-dasharray:none;stroke-dashoffset:0;stroke-opacity:1;color-rendering:auto;image-rendering:auto;shape-rendering:auto;text-rendering:auto;enable-background:accumulate"
           d="m -191.22072,109.88672 -1.67774,1.67773 1.67774,1.67774 0.35351,-0.35547 -1.07617,-1.07422 225.78084,0 -1.076172,1.07422 0.353516,0.35547 1.677734,-1.67774 -1.677734,-1.67773 -0.353516,0.35547 1.076172,1.07422 -225.78084,0 1.07617,-1.07422 z"
           transform="matrix(8,0,0,-8,-7.1247462e-6,1109)"
           id="path4320-0-0-2-8"
           inkscape:connector-curvature="0"
           sodipodi:nodetypes="ccccccccccccccc" /><text
           transform="scale(1,-1)"
           sodipodi:linespacing="125%"
           id="text4345-9-0-5-1"
           y="-168.20813"
           x="-618.04871"
           style="font-style:normal;font-variant:normal;font-weight:normal;font-stretch:normal;font-size:40px;line-height:125%;font-family:'DejaVu Sans';-inkscape-font-specification:'DejaVu Sans';text-align:center;letter-spacing:0px;word-spacing:0px;text-anchor:middle;fill:#000000;fill-opacity:1;stroke:none;stroke-width:1px;stroke-linecap:butt;stroke-linejoin:miter;stroke-opacity:1"
           xml:space="preserve"><tspan
             y="-168.20813"
             x="-618.04871"
             id="tspan4347-6-1-5-2"
             sodipodi:role="line">3b=19a</tspan></text>
</g><path
         style="color:#000000;font-style:normal;font-variant:normal;font-weight:normal;font-stretch:normal;font-size:medium;line-height:normal;font-family:sans-serif;text-indent:0;text-align:start;text-decoration:none;text-decoration-line:none;text-decoration-style:solid;text-decoration-color:#000000;letter-spacing:normal;word-spacing:normal;text-transform:none;direction:ltr;block-progression:tb;writing-mode:lr-tb;baseline-shift:baseline;text-anchor:start;white-space:normal;clip-rule:nonzero;display:inline;overflow:visible;visibility:visible;opacity:1;isolation:auto;mix-blend-mode:normal;color-interpolation:sRGB;color-interpolation-filters:linearRGB;solid-color:#000000;solid-opacity:1;fill:#000000;fill-opacity:1;fill-rule:evenodd;stroke:none;stroke-width:2.18314934;stroke-linecap:butt;stroke-linejoin:miter;stroke-miterlimit:4;stroke-dasharray:none;stroke-dashoffset:0;stroke-opacity:1;color-rendering:auto;image-rendering:auto;shape-rendering:auto;text-rendering:auto;enable-background:accumulate"
         d="m 94.48357,38.4002 54.1837,0 0,0.4 -54.1837,0 0,-0.4 z"
         id="path3465-6-9-0"
         inkscape:connector-curvature="0" /><path
         style="color:#000000;font-style:normal;font-variant:normal;font-weight:normal;font-stretch:normal;font-size:medium;line-height:normal;font-family:sans-serif;text-indent:0;text-align:start;text-decoration:none;text-decoration-line:none;text-decoration-style:solid;text-decoration-color:#000000;letter-spacing:normal;word-spacing:normal;text-transform:none;direction:ltr;block-progression:tb;writing-mode:lr-tb;baseline-shift:baseline;text-anchor:start;white-space:normal;clip-rule:nonzero;display:inline;overflow:visible;visibility:visible;opacity:1;isolation:auto;mix-blend-mode:normal;color-interpolation:sRGB;color-interpolation-filters:linearRGB;solid-color:#000000;solid-opacity:1;fill:#000000;fill-opacity:1;fill-rule:evenodd;stroke:none;stroke-width:2.18314934;stroke-linecap:butt;stroke-linejoin:miter;stroke-miterlimit:4;stroke-dasharray:none;stroke-dashoffset:0;stroke-opacity:1;color-rendering:auto;image-rendering:auto;shape-rendering:auto;text-rendering:auto;enable-background:accumulate"
         d="m 137.59463,18.766649 11.07266,0 0,0.4 -11.07266,0 0,-0.4 z"
         id="path3465-7-5-3-0-8-3"
         inkscape:connector-curvature="0" /><path
         sodipodi:nodetypes="ccccccccccccccc"
         inkscape:connector-curvature="0"
         id="path4320-0-0-8-4-2"
         d="m 147.94505,37.098826 -1.34219,1.342187 -1.3422,-1.342187 0.28439,-0.282813 0.85937,0.860937 0,-17.630117 -0.85937,0.860938 -0.28439,-0.282813 1.3422,-1.342187 1.34219,1.342187 -0.28439,0.282813 -0.85936,-0.860938 0,17.630117 0.85936,-0.860937 z"
         style="color:#000000;font-style:normal;font-variant:normal;font-weight:normal;font-stretch:normal;font-size:medium;line-height:normal;font-family:sans-serif;text-indent:0;text-align:start;text-decoration:none;text-decoration-line:none;text-decoration-style:solid;text-decoration-color:#000000;letter-spacing:normal;word-spacing:normal;text-transform:none;direction:ltr;block-progression:tb;writing-mode:lr-tb;baseline-shift:baseline;text-anchor:start;white-space:normal;clip-rule:nonzero;display:inline;overflow:visible;visibility:visible;opacity:1;isolation:auto;mix-blend-mode:normal;color-interpolation:sRGB;color-interpolation-filters:linearRGB;solid-color:#000000;solid-opacity:1;fill:#000000;fill-opacity:1;fill-rule:evenodd;stroke:none;stroke-width:3.98092699;stroke-linecap:butt;stroke-linejoin:miter;stroke-miterlimit:4;stroke-dasharray:none;stroke-dashoffset:0;stroke-opacity:1;color-rendering:auto;image-rendering:auto;shape-rendering:auto;text-rendering:auto;enable-background:accumulate" /><text
         xml:space="preserve"
         style="font-style:normal;font-variant:normal;font-weight:normal;font-stretch:normal;font-size:4px;line-height:125%;font-family:'DejaVu Sans';-inkscape-font-specification:'DejaVu Sans';text-align:center;letter-spacing:0px;word-spacing:0px;text-anchor:middle;display:inline;fill:#000000;fill-opacity:1;stroke:none;stroke-width:1px;stroke-linecap:butt;stroke-linejoin:miter;stroke-opacity:1"
         x="154.20251"
         y="-25.94203"
         id="text4345-9-0-8-4-8"
         sodipodi:linespacing="125%"
         transform="scale(1,-1)"><tspan
           sodipodi:role="line"
           id="tspan4347-6-1-4-9-7"
           x="154.20251"
           y="-25.94203">2a</tspan></text>
<path
         style="color:#000000;font-style:normal;font-variant:normal;font-weight:normal;font-stretch:normal;font-size:medium;line-height:normal;font-family:sans-serif;text-indent:0;text-align:start;text-decoration:none;text-decoration-line:none;text-decoration-style:solid;text-decoration-color:#000000;letter-spacing:normal;word-spacing:normal;text-transform:none;direction:ltr;block-progression:tb;writing-mode:lr-tb;baseline-shift:baseline;text-anchor:start;white-space:normal;clip-rule:nonzero;display:inline;overflow:visible;visibility:visible;opacity:1;isolation:auto;mix-blend-mode:normal;color-interpolation:sRGB;color-interpolation-filters:linearRGB;solid-color:#000000;solid-opacity:1;fill:#000000;fill-opacity:1;fill-rule:evenodd;stroke:none;stroke-width:4.6367116;stroke-linecap:butt;stroke-linejoin:miter;stroke-miterlimit:4;stroke-dasharray:none;stroke-dashoffset:0;stroke-opacity:1;color-rendering:auto;image-rendering:auto;shape-rendering:auto;text-rendering:auto;enable-background:accumulate"
         d="m 140.83318,11.547566 0,7.682527 0.4,0 0,-7.682527 -0.4,0 z"
         id="path3465-7-5-3-2-9"
         inkscape:connector-curvature="0" /><path
         style="color:#000000;font-style:normal;font-variant:normal;font-weight:normal;font-stretch:normal;font-size:medium;line-height:normal;font-family:sans-serif;text-indent:0;text-align:start;text-decoration:none;text-decoration-line:none;text-decoration-style:solid;text-decoration-color:#000000;letter-spacing:normal;word-spacing:normal;text-transform:none;direction:ltr;block-progression:tb;writing-mode:lr-tb;baseline-shift:baseline;text-anchor:start;white-space:normal;clip-rule:nonzero;display:inline;overflow:visible;visibility:visible;opacity:1;isolation:auto;mix-blend-mode:normal;color-interpolation:sRGB;color-interpolation-filters:linearRGB;solid-color:#000000;solid-opacity:1;fill:#000000;fill-opacity:1;fill-rule:evenodd;stroke:none;stroke-width:2.18314934;stroke-linecap:butt;stroke-linejoin:miter;stroke-miterlimit:4;stroke-dasharray:none;stroke-dashoffset:0;stroke-opacity:1;color-rendering:auto;image-rendering:auto;shape-rendering:auto;text-rendering:auto;enable-background:accumulate"
         d="m 61.642318,54 36.909952,0 0,0.4 -36.909952,0 0,-0.4 z"
         id="path3465-6-9-0-3"
         inkscape:connector-curvature="0" /><path
         sodipodi:nodetypes="ccccccccccccccc"
         inkscape:connector-curvature="0"
         id="path4320-0-0-8-4-2-6"
         d="m 97.40315,52.655916 -1.342138,1.34218 -1.342148,-1.34218 0.284378,-0.28282 0.859338,0.86094 0,-13.691926 -0.859338,0.86094 -0.284378,-0.28281 1.342148,-1.34219 1.342138,1.34219 -0.284378,0.28281 -0.859328,-0.86094 0,13.691926 0.859328,-0.86094 z"
         style="color:#000000;font-style:normal;font-variant:normal;font-weight:normal;font-stretch:normal;font-size:medium;line-height:normal;font-family:sans-serif;text-indent:0;text-align:start;text-decoration:none;text-decoration-line:none;text-decoration-style:solid;text-decoration-color:#000000;letter-spacing:normal;word-spacing:normal;text-transform:none;direction:ltr;block-progression:tb;writing-mode:lr-tb;baseline-shift:baseline;text-anchor:start;white-space:normal;clip-rule:nonzero;display:inline;overflow:visible;visibility:visible;opacity:1;isolation:auto;mix-blend-mode:normal;color-interpolation:sRGB;color-interpolation-filters:linearRGB;solid-color:#000000;solid-opacity:1;fill:#000000;fill-opacity:1;fill-rule:evenodd;stroke:none;stroke-width:3.98092699;stroke-linecap:butt;stroke-linejoin:miter;stroke-miterlimit:4;stroke-dasharray:none;stroke-dashoffset:0;stroke-opacity:1;color-rendering:auto;image-rendering:auto;shape-rendering:auto;text-rendering:auto;enable-background:accumulate" /><text
         xml:space="preserve"
         style="font-style:normal;font-variant:normal;font-weight:normal;font-stretch:normal;font-size:4px;line-height:125%;font-family:'DejaVu Sans';-inkscape-font-specification:'DejaVu Sans';text-align:center;letter-spacing:0px;word-spacing:0px;text-anchor:middle;display:inline;fill:#000000;fill-opacity:1;stroke:none;stroke-width:1px;stroke-linecap:butt;stroke-linejoin:miter;stroke-opacity:1"
         x="104.28704"
         y="-45.437305"
         id="text4345-9-0-8-4-8-7"
         sodipodi:linespacing="125%"
         transform="scale(1,-1)"><tspan
           sodipodi:role="line"
           id="tspan4347-6-1-4-9-7-5"
           x="104.28704"
           y="-45.437305">5/3*a</tspan></text>
<path
         style="color:#000000;font-style:normal;font-variant:normal;font-weight:normal;font-stretch:normal;font-size:medium;line-height:normal;font-family:sans-serif;text-indent:0;text-align:start;text-decoration:none;text-decoration-line:none;text-decoration-style:solid;text-decoration-color:#000000;letter-spacing:normal;word-spacing:normal;text-transform:none;direction:ltr;block-progression:tb;writing-mode:lr-tb;baseline-shift:baseline;text-anchor:start;white-space:normal;clip-rule:nonzero;display:inline;overflow:visible;visibility:visible;opacity:1;isolation:auto;mix-blend-mode:normal;color-interpolation:sRGB;color-interpolation-filters:linearRGB;solid-color:#000000;solid-opacity:1;fill:#000000;fill-opacity:1;fill-rule:evenodd;stroke:none;stroke-width:2.18314934;stroke-linecap:butt;stroke-linejoin:miter;stroke-miterlimit:4;stroke-dasharray:none;stroke-dashoffset:0;stroke-opacity:1;color-rendering:auto;image-rendering:auto;shape-rendering:auto;text-rendering:auto;enable-background:accumulate"
         d="m 61.64232,115.2 36.90995,0 0,0.4 -36.90995,0 0,-0.4 z"
         id="path3465-6-9-0-3-5"
         inkscape:connector-curvature="0" /></g></g></svg>