<?xml version="1.0" encoding="UTF-8" standalone="no"?>
<svg xmlns:rdf="http://www.w3.org/1999/02/22-rdf-syntax-ns#" xmlns="http://www.w3.org/2000/svg" xml:space="preserve" height="76" viewBox="0 0 322.99999 76" width="323" version="1.1" xmlns:cc="http://creativecommons.org/ns#" xmlns:xlink="http://www.w3.org/1999/xlink" xmlns:dc="http://purl.org/dc/elements/1.1/"><g transform="matrix(1.25,0,0,-1.25,-24,100)"><g><path d="m278.86 800c-48.12 0-86.86-38.72-86.86-86.84v-434.3c0-48.12 38.74-86.86 86.86-86.86h97.14v64h-66.422c-29.68 0-53.58 23.9-53.58 53.58v372.86c0 29.68 23.9 53.56 53.58 53.56h66.42v64h-97.141zm337.14 0v-64h66.422c29.68 0 53.58-23.88 53.58-53.56v-372.86c0-29.68-23.9-53.58-53.58-53.58h-66.42v-64h97.141c48.12 0 86.86 38.74 86.86 86.86v434.3c0 48.12-38.74 86.84-86.86 86.84h-97.14z" transform="scale(.1)" fill="#2f99a4"/><path d="m640 556.05c0 69.883-28.256 117.2-99.181 117.2-53.946 0-98.363-15.705-130.03-53.831l-3.4 44.32-55.39 0.26v-336h64v227.23c14.489 37.262 62.452 68.965 104.66 68.353 55.49-0.80431 53.781-59.469 55.343-99.133v-196.45h64" transform="scale(.1)" fill="#585961"/></g><g fill="#585961"><path d="m261.08 65.607v-25.607h3.2078v11.58c0.87648 2.9305 3.6054 5.0437 6.0906 5.0437 3.2182 0 4.0125-2.909 4.0125-5.8906v-10.733h3.2094v11.469c0 4.22-1.2818 8.0609-6.0188 8.0609-2.9624 0-5.6836-1.1628-7.2938-3.3844v9.4609zm-125.83-0.8v-5.6062h-2.5906v-2.5406h2.5906v-12.904c0-2.9583 2.1767-3.9898 4.3031-4.0125 1.4969 0 2.6446 0.36546 3.8125 0.84375v2.6688c-0.53588-0.28085-1.4665-0.78281-2.7547-0.78281-1.3834 0-2.1531 0.90779-2.1531 2.0953v12.091h4.2687v2.5406h-4.2687v5.6062zm-29.212-5.2766c-3.0068 0-6.1458-1.0353-7.9141-3.3844v3.0547h-2.9188l-0.007-19.201h3.2094v11.58c0.68865 2.5785 3.5309 5.0437 6.3453 5.0437 3.4652 0 3.7424-3.5071 3.7562-5.8906v-10.733h3.2094v11.469c-0.0157 3.9379-0.88873 8.0609-5.6875 8.0609zm77.039 0c-4.466 0-7.2922-2.4062-7.2922-5.9625 0-2.7461 1.7424-3.5776 3.5734-4.1969 1.8596-0.60026 3.516-0.96791 5.325-1.4719 1.6314-0.51629 2.9906-1.0843 2.9906-2.725 0-2.5134-2.5841-3.1491-4.5234-3.1491-2.9521 0.04434-5.0092 1.1458-6.8922 2.5781l-1.386-2.1703c2.1396-1.8135 5.2167-2.7813 8.3516-2.8 4.3175 0 7.55 2.0023 7.55 5.8351 0 2.9241-2.1252 3.8593-4.0263 4.5761-1.4433 0.54422-3.5258 0.88457-5.5112 1.5004-1.3894 0.43098-2.4266 0.94712-2.4266 2.4641 0 2.7633 2.7861 3.1688 4.1953 3.1688 2.2633 0 4.243-0.80419 5.7625-2.1359l1.4594 1.95c-1.747 1.436-3.9327 2.5391-7.15 2.5391zm37.014 0c-2.9513 0-5.3772-1.1022-7.4766-2.5016l1.0578-2.1578c2.1149 1.5375 4.1573 2.3062 6.0531 2.3062 3.2443 0 5.0344-2.0108 5.0344-5.0453v-1.1062c-0.95756 0.27797-2.2308 0.77969-5.325 0.77969-4.2624 0-7.6994-2.4783-7.7297-6.3 0-3.5121 2.9327-5.8721 6.325-5.8721 2.9754 0 5.8177 1.3937 7.1656 3.1281l0.0937-1.1625c0.1488-1.4797 1.8051-1.7453 2.3875-1.7453 0.56824 0 1.3125 0.14687 1.3125 0.14687v2.7984c-0.68012 0.02585-1.0219 0.41615-1.0219 1.1781v7.8252c0 5.6377-3.7887 7.7281-7.8766 7.7281zm31.072 0c-5.5272 0-9.6641-4.2111-9.6641-9.9016 0-5.726 4.252-9.9953 9.7016-9.9953 3.167 0 6.0788 1.4865 7.4766 3.6031l-2.55 2.0281c-0.68267-1.6015-2.887-2.8312-5-2.8312-3.6937 0-6.3453 3.4255-6.3453 7.1953 0 3.8723 2.6207 7.1062 6.3078 7.1062 2.2314 0 4.0052-1.1362 4.9594-2.8703l2.5375 2.0188c-1.4988 2.1437-3.8738 3.6469-7.4234 3.6469zm-31.219-9.9391c2.1002 0 3.3092-0.41626 4.8156-1.0031v-1.9797c0-1.3038-1.8254-4.5455-5.9812-4.5455-2.7901 0.04193-4.3047 1.7935-4.3047 3.7362 0 2.8574 2.9055 3.7922 5.4703 3.7922z"/><path id="a" d="m123.28 59.53c-5.5526 0-9.7359-4.3372-9.7359-9.9391 0-5.3623 3.9061-9.9578 9.7-9.9578 3.2558 0 6.1736 1.4855 7.7703 3.8609l-2.225 1.7703c-0.64789-1.8684-3.2708-3.2016-5.4359-3.2016-3.5155 0-6.1478 2.7884-6.4188 6.3371h15.792c0.0712 0.42337 0.0719 0.9772 0.0719 1.3378 0 5.4197-4.0077 9.7922-9.5188 9.7922zm0-2.4281c3.5638 0 6.1883-2.8255 6.4922-6.3019h-12.911c0.32259 3.486 2.7982 6.277 6.4188 6.3019z" fill="#585961"/><use xlink:href="#a" transform="translate(41.764)" height="100%" width="100%" y="0" x="0"/><use xlink:href="#a" transform="translate(78.112)" height="100%" width="100%" y="0" x="0"/><path id="b" d="m154.37 59.347c-2.3532 0-4.7906-1.3673-6.0188-3.2016v3.0547h-2.9891v-19.2h3.2094v11.836c0.87209 2.5528 3.6821 4.512 6.8563 4.512v2.963s-0.69502 0.03594-1.0578 0.03594z" fill="#585961"/><use xlink:href="#b" transform="translate(85.955)" height="100%" width="100%" y="0" x="0"/></g><g opacity=".5" display="none"><g fill-rule="evenodd"><path opacity="1" style="color-rendering:auto;text-decoration-color:#000000;color:#000000;isolation:auto;mix-blend-mode:normal;shape-rendering:auto;solid-color:#000000;block-progression:tb;text-decoration-line:none;text-decoration-style:solid;image-rendering:auto;white-space:normal;text-indent:0;text-transform:none" d="m192.79 66.385v193.49h4v-193.49h-4z" transform="scale(.1)" display="inline"/><path opacity="1" style="color-rendering:auto;text-decoration-color:#000000;color:#000000;isolation:auto;mix-blend-mode:normal;shape-rendering:auto;solid-color:#000000;block-progression:tb;text-decoration-line:none;text-decoration-style:solid;image-rendering:auto;white-space:normal;text-indent:0;text-transform:none" d="m256.66 137.34v154.7h4v-154.7h-4z" transform="scale(.1)" display="inline"/><path opacity="1" style="color-rendering:auto;text-decoration-color:#000000;color:#000000;isolation:auto;mix-blend-mode:normal;shape-rendering:auto;solid-color:#000000;block-progression:tb;text-decoration-line:none;text-decoration-style:solid;image-rendering:auto;white-space:normal;text-indent:0;text-transform:none" d="m736.66 137.34v154.7h4v-154.7h-4z" transform="scale(.1)" display="inline"/><path opacity="1" style="color-rendering:auto;text-decoration-color:#000000;color:#000000;isolation:auto;mix-blend-mode:normal;shape-rendering:auto;solid-color:#000000;block-progression:tb;text-decoration-line:none;text-decoration-style:solid;image-rendering:auto;white-space:normal;text-indent:0;text-transform:none" d="m795.37 66.385v193.51h4v-193.51h-4z" transform="scale(.1)" display="inline"/></g><g display="inline" transform="matrix(.1 0 0 .1 1.6 54.941)"><g stroke="#000" fill="none"><path d="m363 216.49h235.5" stroke-width="4.0085"/><path d="m374.5 228.49-12-12 12-12" stroke-width="4"/><path d="m585.59 228.49 12-12-12-12" stroke-width="4"/></g><text style="word-spacing:0px;letter-spacing:0px" transform="scale(1,-1)" xml:space="preserve" line-height="125%" font-size="40px" y="-168.20813" x="439.8204" font-family="&apos;DejaVu Sans&apos;" fill="#000000"><tspan y="-168.20813" x="439.8204">2.5a</tspan></text>
</g><g display="inline" transform="matrix(.1 0 0 .1 1.6 -5.8662)"><g stroke="#000" fill="none"><path d="m247 216.49h468.5" stroke-width="3.9809"/><path d="m258.67 228.49-12-12 12-12" stroke-width="4"/><path d="m706.07 228.49 12-12-12-12" stroke-width="4"/></g><text style="word-spacing:0px;letter-spacing:0px;text-anchor:middle;text-align:center" transform="scale(1,-1)" xml:space="preserve" line-height="125%" font-size="40px" y="-168.20813" x="482.95126" font-family="&apos;DejaVu Sans&apos;" fill="#000000"><tspan y="-168.20813" x="482.95126">5a</tspan></text>
</g><g display="inline" transform="matrix(.1 0 0 .1 7e-7 -13.062)"><path opacity="1" fill-rule="evenodd" style="color-rendering:auto;text-decoration-color:#000000;color:#000000;isolation:auto;mix-blend-mode:normal;shape-rendering:auto;solid-color:#000000;block-progression:tb;text-decoration-line:none;text-decoration-style:solid;image-rendering:auto;white-space:normal;text-indent:0;text-transform:none" d="m26.283 109.89-1.6777 1.6777 1.6777 1.6777 0.35352-0.35547-1.0762-1.0742h72.749l-1.0762 1.0742 0.35352 0.35547 1.6777-1.6777-1.6777-1.6777-0.35352 0.35547 1.0762 1.0742h-72.749l1.0762-1.0742z" display="inline" transform="matrix(8 0 0 -8 -.0000071247 1109)"/><text style="word-spacing:0px;letter-spacing:0px;text-anchor:middle;text-align:center" transform="scale(1,-1)" xml:space="preserve" line-height="125%" font-size="40px" y="-168.20813" x="498.95126" font-family="&apos;DejaVu Sans&apos;" fill="#000000"><tspan y="-168.20813" x="498.95126">b=19/3*a</tspan></text>
</g><path opacity="1" style="color-rendering:auto;text-decoration-color:#000000;color:#000000;isolation:auto;mix-blend-mode:normal;shape-rendering:auto;solid-color:#000000;block-progression:tb;text-decoration-line:none;text-decoration-style:solid;image-rendering:auto;white-space:normal;text-indent:0;text-transform:none" d="m346.62 284.72v42.895h4v-42.895h-4z" fill-rule="evenodd" transform="scale(.1)" display="inline"/><path opacity="1" style="color-rendering:auto;text-decoration-color:#000000;color:#000000;isolation:auto;mix-blend-mode:normal;shape-rendering:auto;solid-color:#000000;block-progression:tb;text-decoration-line:none;text-decoration-style:solid;image-rendering:auto;white-space:normal;text-indent:0;text-transform:none" d="m639.06 284.72v42.9h4v-42.9h-4z" fill-rule="evenodd" transform="scale(.1)" display="inline"/><g display="inline" transform="matrix(.1 0 0 .1 1.3912 8.9935)"><path opacity="1" fill-rule="evenodd" style="color-rendering:auto;text-decoration-color:#000000;color:#000000;isolation:auto;mix-blend-mode:normal;shape-rendering:auto;solid-color:#000000;block-progression:tb;text-decoration-line:none;text-decoration-style:solid;image-rendering:auto;white-space:normal;text-indent:0;text-transform:none" d="m43.532 109.89-1.6777 1.6777 1.6777 1.6777 0.35352-0.35547-1.0762-1.0742h34.34l-1.0762 1.0742 0.35352 0.35547 1.6777-1.6777-1.6777-1.6777-0.35352 0.35547 1.0762 1.0742h-34.34l1.0762-1.0742z" display="inline" transform="matrix(8 0 0 -8 -.0000071247 1109)"/><text style="word-spacing:0px;letter-spacing:0px;text-anchor:middle;text-align:center" transform="scale(1,-1)" xml:space="preserve" line-height="125%" font-size="40px" y="-168.20813" x="482.95126" font-family="&apos;DejaVu Sans&apos;" fill="#000000"><tspan y="-168.20813" x="482.95126">3a</tspan></text>
</g><g fill-rule="evenodd"><path opacity="1" style="color-rendering:auto;text-decoration-color:#000000;color:#000000;isolation:auto;mix-blend-mode:normal;shape-rendering:auto;solid-color:#000000;block-progression:tb;text-decoration-line:none;text-decoration-style:solid;image-rendering:auto;white-space:normal;text-indent:0;text-transform:none" d="m350.89 664.78h-320.92v4h320.92v-4z" transform="scale(.1)" display="inline"/><path opacity="1" style="color-rendering:auto;text-decoration-color:#000000;color:#000000;isolation:auto;mix-blend-mode:normal;shape-rendering:auto;solid-color:#000000;block-progression:tb;text-decoration-line:none;text-decoration-style:solid;image-rendering:auto;white-space:normal;text-indent:0;text-transform:none" d="m350.93 324.7h-320.97v4h320.97v-4z" transform="scale(.1)" display="inline"/><path opacity="1" style="color-rendering:auto;text-decoration-color:#000000;color:#000000;isolation:auto;mix-blend-mode:normal;shape-rendering:auto;solid-color:#000000;block-progression:tb;text-decoration-line:none;text-decoration-style:solid;image-rendering:auto;white-space:normal;text-indent:0;text-transform:none" d="m65.887 651.33-13.422 13.422-13.422-13.422 2.8438-2.8281 8.5938 8.6094v-321.31l-8.5938 8.6094-2.8438-2.8281 13.422-13.422 13.422 13.422-2.8438 2.8281-8.5938-8.6094v321.31l8.5938-8.6094z" transform="scale(.1)" display="inline"/></g><text style="word-spacing:0px;letter-spacing:0px;text-anchor:middle;text-align:center" xml:space="preserve" transform="scale(.1 -.1)" line-height="125%" font-size="40px" y="-483.84802" x="106.41053" font-family="&apos;DejaVu Sans&apos;" display="inline" fill="#000000"><tspan x="106.41053" y="-483.84802">3.5a</tspan></text>
<path opacity="1" style="color-rendering:auto;text-decoration-color:#000000;color:#000000;isolation:auto;mix-blend-mode:normal;shape-rendering:auto;solid-color:#000000;block-progression:tb;text-decoration-line:none;text-decoration-style:solid;image-rendering:auto;white-space:normal;text-indent:0;text-transform:none" d="m95.2 6.6385v33.364h0.4v-33.364h-0.4z" fill-rule="evenodd" display="inline"/><g display="inline" transform="matrix(.1 0 0 .1 13.769 -13.062)"><path opacity="1" style="color-rendering:auto;text-decoration-color:#000000;color:#000000;isolation:auto;mix-blend-mode:normal;shape-rendering:auto;solid-color:#000000;block-progression:tb;text-decoration-line:none;text-decoration-style:solid;image-rendering:auto;white-space:normal;text-indent:0;text-transform:none" d="m675.01 229.91-13.163-13.422 13.163-13.422 2.7737 2.8438-8.4436 8.5938h137.81l-8.4436-8.5938 2.7736-2.8438 13.163 13.422-13.163 13.422-2.7736-2.8438 8.4436-8.5938h-137.81l8.4436 8.5938z" fill-rule="evenodd" display="inline"/><text style="word-spacing:0px;letter-spacing:0px;text-anchor:middle;text-align:center" transform="scale(1,-1)" xml:space="preserve" line-height="125%" font-size="40px" y="-168.20813" x="741.9483" font-family="&apos;DejaVu Sans&apos;" fill="#000000"><tspan y="-168.20813" x="741.9483">1/4*b</tspan></text>
</g><g display="inline" transform="matrix(.1 0 0 .1 250.57 -13.062)"><path opacity="1" fill-rule="evenodd" style="color-rendering:auto;text-decoration-color:#000000;color:#000000;isolation:auto;mix-blend-mode:normal;shape-rendering:auto;solid-color:#000000;block-progression:tb;text-decoration-line:none;text-decoration-style:solid;image-rendering:auto;white-space:normal;text-indent:0;text-transform:none" d="m-192.1 109.89-1.6777 1.6777 1.6777 1.6777 0.35351-0.35547-1.0762-1.0742h225.6l-1.0762 1.0742 0.35352 0.35547 1.6777-1.6777-1.6777-1.6777-0.35352 0.35547 1.0762 1.0742h-225.6l1.0762-1.0742z" display="inline" transform="matrix(8 0 0 -8 -.0000071247 1109)"/><text style="word-spacing:0px;letter-spacing:0px;text-anchor:middle;text-align:center" transform="scale(1,-1)" xml:space="preserve" line-height="125%" font-size="40px" y="-168.20813" x="-650.04871" font-family="&apos;DejaVu Sans&apos;" fill="#000000"><tspan y="-168.20813" x="-650.04871">3b=19a</tspan></text>
</g><g fill-rule="evenodd"><path opacity="1" style="color-rendering:auto;text-decoration-color:#000000;color:#000000;isolation:auto;mix-blend-mode:normal;shape-rendering:auto;solid-color:#000000;block-progression:tb;text-decoration-line:none;text-decoration-style:solid;image-rendering:auto;white-space:normal;text-indent:0;text-transform:none" d="m232.08 59.173h54.184v0.4h-54.184v-0.4z" display="inline"/><path opacity="1" style="color-rendering:auto;text-decoration-color:#000000;color:#000000;isolation:auto;mix-blend-mode:normal;shape-rendering:auto;solid-color:#000000;block-progression:tb;text-decoration-line:none;text-decoration-style:solid;image-rendering:auto;white-space:normal;text-indent:0;text-transform:none" d="m275.19 39.539h11.073v0.4h-11.073v-0.4z" display="inline"/><path opacity="1" style="color-rendering:auto;text-decoration-color:#000000;color:#000000;isolation:auto;mix-blend-mode:normal;shape-rendering:auto;solid-color:#000000;block-progression:tb;text-decoration-line:none;text-decoration-style:solid;image-rendering:auto;white-space:normal;text-indent:0;text-transform:none" d="m285.55 57.871-1.3422 1.3422-1.3422-1.3422 0.28439-0.28281 0.85937 0.86094v-17.63l-0.85937 0.86094-0.28439-0.28281 1.3422-1.3422 1.3422 1.3422-0.28439 0.28281-0.85936-0.86094v17.63l0.85936-0.86094z" display="inline"/></g><text style="word-spacing:0px;letter-spacing:0px;text-anchor:middle;text-align:center" xml:space="preserve" transform="scale(1,-1)" line-height="125%" font-size="4px" y="-46.714466" x="291.80304" font-family="&apos;DejaVu Sans&apos;" display="inline" fill="#000000"><tspan x="291.80304" y="-46.714466">2a</tspan></text><g fill-rule="evenodd">
<path opacity="1" style="color-rendering:auto;text-decoration-color:#000000;color:#000000;isolation:auto;mix-blend-mode:normal;shape-rendering:auto;solid-color:#000000;block-progression:tb;text-decoration-line:none;text-decoration-style:solid;image-rendering:auto;white-space:normal;text-indent:0;text-transform:none" d="m277.58 6.6385v33.364h0.4v-33.364h-0.4z" display="inline"/><path opacity="1" style="color-rendering:auto;text-decoration-color:#000000;color:#000000;isolation:auto;mix-blend-mode:normal;shape-rendering:auto;solid-color:#000000;block-progression:tb;text-decoration-line:none;text-decoration-style:solid;image-rendering:auto;white-space:normal;text-indent:0;text-transform:none" d="m68.076 73.2h30.642v0.4h-30.642v-0.4z" display="inline"/><path opacity="1" style="color-rendering:auto;text-decoration-color:#000000;color:#000000;isolation:auto;mix-blend-mode:normal;shape-rendering:auto;solid-color:#000000;block-progression:tb;text-decoration-line:none;text-decoration-style:solid;image-rendering:auto;white-space:normal;text-indent:0;text-transform:none" d="m97.996 71.898-1.3422 1.3422-1.3422-1.3422 0.28439-0.28281 0.85937 0.86094v-12.517l-0.85937 0.86094-0.28439-0.28281 1.3422-1.3422 1.3422 1.3422-0.28439 0.28281-0.85936-0.86094v12.517l0.85936-0.86094z" display="inline"/></g><text style="word-spacing:0px;letter-spacing:0px;text-anchor:middle;text-align:center" xml:space="preserve" transform="scale(1,-1)" line-height="125%" font-size="4px" y="-65.227989" x="104.25396" font-family="&apos;DejaVu Sans&apos;" display="inline" fill="#000000"><tspan x="104.25396" y="-65.227989">1.5a</tspan></text>
</g></g></svg>
